<svg xmlns="http://www.w3.org/2000/svg" viewBox="0 0 1000 241.56"><defs><style>.a{fill:#2a85bd;}.b{fill:#342e59;}</style></defs><path class="a" d="M382.89,21.21a2.16,2.16,0,0,0-.87-1.79,3,3,0,0,0-1.84-.69l-21.46,0a2.58,2.58,0,0,0-1.79.65,2.19,2.19,0,0,0-.73,1.72,2.34,2.34,0,0,0,.73,1.79,2.53,2.53,0,0,0,1.79.68l16.47,0L354.84,49.93a2.45,2.45,0,0,0-.61,1.56,2.41,2.41,0,0,0,.78,1.74,2.55,2.55,0,0,0,1.89.79l22.86,0a2.44,2.44,0,0,0,1.79-.71,2.29,2.29,0,0,0,.74-1.71,2.26,2.26,0,0,0-.73-1.76,2.6,2.6,0,0,0-1.79-.67l-17.78,0,20.35-26.35A2.84,2.84,0,0,0,382.89,21.21Z"/><path class="a" d="M416.1,17.94a1.53,1.53,0,0,0-.63-1.28,2.17,2.17,0,0,0-1.32-.5l-15.35,0a1.83,1.83,0,0,0-1.28.47,1.55,1.55,0,0,0-.52,1.22,1.65,1.65,0,0,0,.52,1.28,1.79,1.79,0,0,0,1.28.5l11.78,0L396,38.48a1.79,1.79,0,0,0-.43,1.12,1.73,1.73,0,0,0,.55,1.25,1.88,1.88,0,0,0,1.36.56l16.35,0a1.8,1.8,0,0,0,1.29-.51,1.65,1.65,0,0,0,.52-1.22,1.59,1.59,0,0,0-.52-1.26,1.82,1.82,0,0,0-1.28-.48l-12.72,0L415.7,19.09A2.05,2.05,0,0,0,416.1,17.94Z"/><path class="a" d="M440.85,13a1.24,1.24,0,0,0-.5-1,1.67,1.67,0,0,0-1.05-.39l-12.19,0a1.43,1.43,0,0,0-1,.37,1.24,1.24,0,0,0-.42,1,1.36,1.36,0,0,0,.41,1,1.44,1.44,0,0,0,1,.39l9.36,0-11.57,15a1.33,1.33,0,0,0,.1,1.88,1.5,1.5,0,0,0,1.08.44l13,0a1.42,1.42,0,0,0,1-.41,1.31,1.31,0,0,0,.41-1,1.26,1.26,0,0,0-.41-1,1.46,1.46,0,0,0-1-.38l-10.1,0,11.56-15A1.65,1.65,0,0,0,440.85,13Z"/><circle class="a" cx="340.07" cy="57.15" r="3.09"/><circle class="a" cx="322.98" cy="62.13" r="2.29"/><polygon class="a" points="795.96 49.25 799.76 55.85 807.34 55.13 802.24 60.78 805.27 67.76 798.32 64.66 792.61 69.7 793.41 62.12 786.86 58.25 794.31 56.68 795.96 49.25"/><polygon class="a" points="975.81 147.97 979.6 152.1 984.93 150.37 982.17 155.25 985.47 159.78 979.98 158.66 976.68 163.21 976.05 157.63 970.71 155.9 975.82 153.58 975.81 147.97"/><polygon class="a" points="864.94 195.39 871.42 200.24 878.51 196.35 875.9 204.01 881.79 209.55 873.7 209.44 870.25 216.75 867.86 209.03 859.84 208 866.45 203.34 864.94 195.39"/><polygon class="a" points="739.9 189.91 742.9 197.42 750.99 197.8 744.77 202.97 746.91 210.77 740.06 206.46 733.3 210.91 735.29 203.06 728.98 198.01 737.05 197.47 739.9 189.91"/><polygon class="a" points="891.87 54.27 898.1 57.39 903.51 53.01 902.47 59.9 908.31 63.69 901.44 64.83 899.64 71.55 896.43 65.37 889.48 65.73 894.36 60.77 891.87 54.27"/><path class="b" d="M109.84,115.14a53.4,53.4,0,0,0-16.15-8.29,169.12,169.12,0,0,0-21.47-5.37,114.2,114.2,0,0,1-15.17-3.9,20.2,20.2,0,0,1-8.39-5.11,10.39,10.39,0,0,1-2.45-7.25,9.62,9.62,0,0,1,2.14-6.3,16.15,16.15,0,0,1,7.14-4.74,38.64,38.64,0,0,1,13-1.88,37.63,37.63,0,0,1,10.16,1.51,78.14,78.14,0,0,1,10.73,4,33.78,33.78,0,0,1,7,4.17l20.43-21.88a19.31,19.31,0,0,0-3.7-3.76A60,60,0,0,0,93.85,45.72,76,76,0,0,0,68.62,41.6c-9.69.16-18.55,1.67-26.58,5A45.52,45.52,0,0,0,22.4,61.83c-4.95,6.72-7.46,14.9-7.46,24.33a43.63,43.63,0,0,0,3,16.89,36.81,36.81,0,0,0,9.17,13.34,48.09,48.09,0,0,0,14.8,9.12,87.4,87.4,0,0,0,19.8,5.16,79.32,79.32,0,0,1,17.77,4.27c4.33,1.67,7.46,3.7,9.38,6a11,11,0,0,1,2.66,7.6,8.51,8.51,0,0,1-2.66,6.1,23.18,23.18,0,0,1-8.54,5.21,34.11,34.11,0,0,1-12.09,2h-.05c-6.73-.06-12.41-1-16.89-2.92A60.92,60.92,0,0,1,37,150.35a25,25,0,0,0-2.45-1.91l-20,21.47a20.09,20.09,0,0,0,4.79,5.89,63.36,63.36,0,0,0,22.62,13,87.21,87.21,0,0,0,26.21,3.7h.11a68.14,68.14,0,0,0,26.58-5.21,49.55,49.55,0,0,0,20.37-15.53c5.32-6.88,8-15.17,8-24.6,0-7.24-1.1-13.55-3.28-18.71A33.21,33.21,0,0,0,109.84,115.14Z"/><path class="b" d="M405.39,109.25a59.23,59.23,0,0,0-11.78-18A56.28,56.28,0,0,0,376.47,79a49.29,49.29,0,0,0-20.8-4.58h-.1a53.31,53.31,0,0,0-26.74,7.24,55.58,55.58,0,0,0-20.43,20.79c-4.74,8.13-7.24,18-7.66,29.19-7.29,20.12-30.8,31.22-52.06,31.22-1.67,0-3.44,0-5.26,0a27.18,27.18,0,0,1-13.14-3.44,26.09,26.09,0,0,1-10-9.9,30.91,30.91,0,0,1-1.93-4l60.5.1a16.49,16.49,0,0,0,10.84-3.86,14,14,0,0,0,5.21-10.73,55.21,55.21,0,0,0-4.37-21.84,59.23,59.23,0,0,0-11.78-18A55.6,55.6,0,0,0,261.6,79a49.21,49.21,0,0,0-20.79-4.58h-.1A53.28,53.28,0,0,0,214,81.63a55.58,55.58,0,0,0-20.43,20.79c-5.21,9-7.82,19.86-7.87,32.42a60.64,60.64,0,0,0,7.09,29.34,52.77,52.77,0,0,0,20.59,20.74c8.8,5.06,19.33,7.61,31.21,7.61h.11c1.35,0,2.71.31,4,.21a96.33,96.33,0,0,0,33.09-6,87.4,87.4,0,0,0,29-17.57,53.6,53.6,0,0,0,17.35,15.74c8.86,5.06,19.34,7.61,31.27,7.61h.11A62.23,62.23,0,0,0,380,189.09c6.62-2.34,11.93-5.1,15.63-8.23a16.78,16.78,0,0,0,2.45-2.24l-19.8-21.21c-1,.62-2.14,1.3-3.28,2a23.85,23.85,0,0,1-6.05,2.4,45.12,45.12,0,0,1-10.68,1,27.18,27.18,0,0,1-13.14-3.44,26.56,26.56,0,0,1-10.05-9.9,39.15,39.15,0,0,1-1.88-4l58.58.1h17.87V132.31c0-.4.09-.8.11-1.22A55.22,55.22,0,0,0,405.39,109.25Zm-182,.63a17.39,17.39,0,0,1,7.35-4.38,33.72,33.72,0,0,1,10-1.41h0a22.15,22.15,0,0,1,9.9,2.3,22.85,22.85,0,0,1,7.82,6.2,16,16,0,0,1,2.76,5.37l-42.63-.06A21.14,21.14,0,0,1,223.4,109.88Zm110,8a21.85,21.85,0,0,1,4.84-8,17.39,17.39,0,0,1,7.35-4.38,33.65,33.65,0,0,1,9.9-1.41h.06a22.55,22.55,0,0,1,9.95,2.3,22.12,22.12,0,0,1,7.77,6.2A15.26,15.26,0,0,1,376.1,118Z"/><path class="b" d="M501.59,82.15a49.48,49.48,0,0,0-27-7.76h-.11A40.26,40.26,0,0,0,460,77a46.26,46.26,0,0,0-12,6.57c-.73.57-1.45,1.15-2.13,1.72h0v-9H415.34V230H447l.05-46.43a53.92,53.92,0,0,0,11.83,6.15,46.74,46.74,0,0,0,16.26,2.81h.1a47.68,47.68,0,0,0,26.38-7.61A54.84,54.84,0,0,0,520.35,164c4.59-8.8,6.94-19.07,6.94-30.48S525,111.81,520.41,103A54,54,0,0,0,501.59,82.15Zm-8.28,66.55a25.86,25.86,0,0,1-8.86,10.48,22.25,22.25,0,0,1-13,3.7h-.05a23,23,0,0,1-13.13-3.75,25.72,25.72,0,0,1-8.86-10.48,34.9,34.9,0,0,1-3.24-15.32,34.09,34.09,0,0,1,3.29-15.27,26,26,0,0,1,8.91-10.27,22.82,22.82,0,0,1,13.08-3.7h0a22.41,22.41,0,0,1,13,3.7,26.16,26.16,0,0,1,8.81,10.37,33.27,33.27,0,0,1,3.23,15.27A35,35,0,0,1,493.31,148.7Z"/><path class="b" d="M975.27,129.45c0-.55,0-1.09-.07-1.64a59.28,59.28,0,0,0-.64-6c-.13-.79-.28-1.58-.44-2.36-.27-1.31-.59-2.61-1-3.89q-.15-.55-.33-1.11l-.27-.85c-.11-.34-.23-.69-.35-1l-.36-1c-.13-.35-.26-.69-.4-1s-.35-.86-.53-1.29a59.23,59.23,0,0,0-11.78-18A56.2,56.2,0,0,0,942,79a49.21,49.21,0,0,0-20.79-4.58h-.1a53.28,53.28,0,0,0-26.74,7.24l-1.51.91q-2.22,1.38-4.27,2.95l-.94.75c-.35.27-.69.55-1,.83-.7.6-1.39,1.21-2.07,1.84-.33.31-.66.62-1,.94s-.65.64-1,1-.89.94-1.32,1.42c-.29.31-.57.62-.84.94s-.8.94-1.19,1.43-.78,1-1.16,1.46a60.83,60.83,0,0,0-4.22,6.35c-.86,1.53-1.66,3.11-2.38,4.75-.24.55-.47,1.11-.69,1.67s-.45,1.12-.67,1.69h0c-.42,1.14-.8,2.32-1.16,3.51-.18.6-.35,1.21-.52,1.82a66.75,66.75,0,0,0-2.29,16h0a26.63,26.63,0,0,0-.11,3,60.64,60.64,0,0,0,7.09,29.34,44.17,44.17,0,0,0,3.13,5l0,0a47.37,47.37,0,0,0,5.44,6.48l.22.22,1.21,1.2c.6.58,1.21,1.16,1.86,1.72l1,.85.08.06c.32.26.64.51,1,.75,1,.81,2.07,1.59,3.16,2.33.37.26.75.5,1.13.74l1,.59c.43.27.87.52,1.31.77,8.86,5.06,19.34,7.61,31.27,7.61h.11a62.23,62.23,0,0,0,20.48-3.44c6.62-2.34,11.93-5.1,15.63-8.23a17.32,17.32,0,0,0,2.45-2.24l-19.8-21.21c-1,.62-2.14,1.3-3.29,2a23.61,23.61,0,0,1-6,2.4l-.71.17-.37.08a2.32,2.32,0,0,1-.38.06l-.36.08-.82.14-.38,0-.08,0-.15,0h-.19l-.42.06-.14,0c-.56.08-1.16.14-1.79.18h-.2c-1.2.09-2.46.14-3.81.15h-.88a27.18,27.18,0,0,1-13.14-3.44,25.36,25.36,0,0,1-7.94-6.83,30.23,30.23,0,0,1-2.12-3.07,25.22,25.22,0,0,1-1.87-4l58.56.1h17.88V132.26s0,0,0-.08,0-.25,0-.37,0-.48,0-.72C975.3,130.54,975.29,130,975.27,129.45ZM899,117.9a21.85,21.85,0,0,1,4.84-8,17.39,17.39,0,0,1,7.35-4.38,33.6,33.6,0,0,1,9.9-1.41h.06a22.55,22.55,0,0,1,9.95,2.3c.31.15.62.31.92.48l.66.38a22.13,22.13,0,0,1,4.52,3.46c.14.16.28.31.43.46a7.82,7.82,0,0,1,.67.75c.19.21.38.43.56.67a15.13,15.13,0,0,1,2.82,5.37Z"/><path class="b" d="M822.62,73.19c-15.43,0-27.57,7.55-36.74,16.88a36,36,0,0,0-31.11-16.88c-.58,0-1.15,0-1.78.1a46.47,46.47,0,0,0-5.52-20.43c-5.52-9.8-13.91-15.37-23-15.37-4.75,0-28.3,1.82-28.3,37.94V106.7l-.77.55c-6.32,4.26-29.88,18-29.88,18l9.22,13.13h0a14.78,14.78,0,0,0,1.47,2.09l7.54,10.73,12.38-7.09h0v36.17c0,.07,0,.14,0,.21V195.9h31.27V171.27h0V121.81c2.24-2,4.43-4.07,6.56-6.2.11-.11.21-.16.32-.26,3.64-3.55,13.44-10.89,20.48-10.89,7.4,0,8.23,12.14,8.23,17.35v11.67h0V195.9h31.27V180.68c0-.14,0-.26,0-.4V133.8c3.91-9.54,14.8-29.34,28.35-29.34,7.45,0,8.23,12.14,8.23,17.35V195.4h31.27V121.81C862.12,92.73,846.23,73.19,822.62,73.19Z"/><path class="b" d="M164.93,162.67V41.6H133.66V167.41a22.62,22.62,0,0,0,6,17.56c6.82,7.35,16.83,9,24.85,9h24.34V162.67H164.93Z"/><path class="b" d="M665.13,163.66c-2.82-2.66-6.46-6-10.89-10.11l-2.51-2.29a17.94,17.94,0,0,0,.84-1.83A97,97,0,0,0,660,122l-26.94-5.89-.73-.16a6.52,6.52,0,0,0-.16.84A72.28,72.28,0,0,1,629,130.2c-1.46-1.41-2.92-2.81-4.38-4.27-5-4.85-9.64-9.54-13.65-13.86-2.55-2.82-5.79-6.1-9.64-9.75a80.54,80.54,0,0,1-9.54-10.89,16.92,16.92,0,0,1-3.59-10,11.74,11.74,0,0,1,3.54-8.59c2.4-2.4,5.89-3.6,10.79-3.6h0a30,30,0,0,1,11.78,2c8.87,3.84,13.86,12.93,14.59,14L632,83.19l15.47-10.37,4.69-3.12A56,56,0,0,0,642,55.31l-.31-.31c-.42-.42-.94-.89-1.41-1.35s-1.2-1-1.82-1.57a32.53,32.53,0,0,0-4.07-2.81h0a45.09,45.09,0,0,0-5.52-2.76,68.41,68.41,0,0,0-26.27-4.9c-9.28.1-17.87,1.87-24.91,5.68a43.25,43.25,0,0,0-16.52,15.06,37.56,37.56,0,0,0-5.89,20.22,30.72,30.72,0,0,0,4,15.37c.63,1,1.25,2.09,1.93,3.13a58.8,58.8,0,0,0-12.09,8.23,45.43,45.43,0,0,0-11.57,16,50.5,50.5,0,0,0-3.8,19.7,42.41,42.41,0,0,0,7,23.4,52.27,52.27,0,0,0,19.07,17.41A56.25,56.25,0,0,0,587,192.53h.16c11,0,21-1.93,29.44-5.78A67.71,67.71,0,0,0,634,175.49c4.43,3.86,9.07,7.87,14,12.09l18.92-22.15A19.07,19.07,0,0,0,665.13,163.66Zm-57.64-5.16a29.1,29.1,0,0,1-14.8,3.75h-.05c-6.88,0-12.3-1.09-16.21-3.23a18.63,18.63,0,0,1-8.13-7.76,19.75,19.75,0,0,1-2.5-9.8c0-5,1.25-9.07,3.85-12.4,1.78-2.35,5.22-4.33,10-5.89.63.73,1.3,1.46,2,2.19,5.89,6.72,12.2,13.39,18.87,19.75,3.54,3.44,7.29,7,11.25,10.58A33.12,33.12,0,0,1,607.49,158.5Z"/></svg>