<svg width="979" height="294" viewBox="0 0 979 294" fill="none" xmlns="http://www.w3.org/2000/svg">
<rect x="152" y="70" width="14" height="120" fill="#6E07F3"/>
<rect x="151.59" y="70" width="14" height="133.397" transform="rotate(32 151.59 70)" fill="#6E07F3"/>
<rect x="78" y="179" width="14" height="12" fill="#6E07F3"/>
<rect x="166" y="190" width="14" height="64" transform="rotate(-90 166 190)" fill="#6E07F3"/>
<rect x="91" y="136" width="14" height="64" transform="rotate(-90 91 136)" fill="#6E07F3"/>
<rect x="9.89949" y="147" width="193.12" height="193.12" transform="rotate(-45 9.89949 147)" stroke="#141C3A" stroke-width="14"/>
<path d="M405.363 120.172C406.991 113.531 408.944 107.346 411.223 101.617C413.566 95.888 416.301 90.9076 419.426 86.6758C422.551 82.3789 426.164 79.026 430.266 76.6172C434.432 74.2083 439.152 73.0039 444.426 73.0039C447.746 73.0039 450.839 73.2969 453.703 73.8828C456.568 74.4036 459.107 75.1523 461.32 76.1289C463.534 77.1055 465.324 78.2773 466.691 79.6445C468.059 80.9466 468.84 82.4115 469.035 84.0391C469.1 85.2109 469.035 86.4154 468.84 87.6523C468.645 88.8242 468.286 89.8984 467.766 90.875C467.245 91.8516 466.529 92.6654 465.617 93.3164C464.771 93.9023 463.762 94.1953 462.59 94.1953C461.874 94.1953 461.255 93.8372 460.734 93.1211C460.214 92.4049 459.66 91.526 459.074 90.4844C458.553 89.4427 457.902 88.3034 457.121 87.0664C456.405 85.7643 455.461 84.5924 454.289 83.5508C453.182 82.5091 451.783 81.6302 450.09 80.9141C448.397 80.1979 446.314 79.8398 443.84 79.8398C439.934 79.8398 436.451 81.4349 433.391 84.625C430.331 87.75 427.596 91.9818 425.188 97.3203C422.844 102.659 420.76 108.811 418.938 115.777C417.18 122.678 415.585 129.938 414.152 137.555L446.965 201.617C448.267 204.221 449.667 206.174 451.164 207.477C452.727 208.779 454.549 209.43 456.633 209.43C458.716 209.43 460.539 208.974 462.102 208.062C463.729 207.151 465.161 206.207 466.398 205.23L468.84 208.16C467.473 209.527 465.78 210.96 463.762 212.457C461.809 213.889 459.595 215.224 457.121 216.461C454.647 217.633 451.978 218.609 449.113 219.391C446.314 220.172 443.352 220.562 440.227 220.562C437.102 220.562 434.204 220.27 431.535 219.684C428.866 219.098 426.294 218.023 423.82 216.461C421.346 214.833 418.97 212.62 416.691 209.82C414.413 207.021 412.102 203.408 409.758 198.98L395.207 170.562C393.449 177.594 391.333 184.169 388.859 190.289C386.385 196.344 383.456 201.617 380.07 206.109C376.75 210.602 372.909 214.15 368.547 216.754C364.185 219.293 359.27 220.562 353.801 220.562C350.48 220.562 347.258 220.27 344.133 219.684C341.073 219.163 338.306 218.414 335.832 217.438C333.423 216.461 331.438 215.322 329.875 214.02C328.312 212.652 327.434 211.188 327.238 209.625C327.108 208.453 327.173 207.281 327.434 206.109C327.629 204.872 327.987 203.766 328.508 202.789C329.029 201.812 329.712 200.999 330.559 200.348C331.405 199.697 332.414 199.371 333.586 199.371C334.302 199.371 334.953 199.729 335.539 200.445C336.19 201.161 336.874 202.073 337.59 203.18C338.306 204.221 339.12 205.361 340.031 206.598C340.943 207.835 342.049 209.007 343.352 210.113C344.654 211.155 346.184 212.034 347.941 212.75C349.764 213.466 351.913 213.824 354.387 213.824C358.358 213.824 361.971 212.164 365.227 208.844C368.547 205.458 371.509 200.966 374.113 195.367C376.717 189.768 378.996 183.29 380.949 175.934C382.967 168.577 384.725 160.927 386.223 152.984L355.168 92.0469C353.866 89.3776 352.466 87.4245 350.969 86.1875C349.471 84.8854 347.681 84.2344 345.598 84.2344C343.514 84.2344 341.659 84.6901 340.031 85.6016C338.404 86.4479 337.004 87.3919 335.832 88.4336L333.391 85.4062C334.758 84.0391 336.418 82.6393 338.371 81.207C340.389 79.7747 342.603 78.4401 345.012 77.2031C347.486 75.9661 350.155 74.957 353.02 74.1758C355.884 73.3945 358.879 73.0039 362.004 73.0039C365.129 73.0039 368.026 73.2969 370.695 73.8828C373.365 74.4688 375.904 75.5755 378.312 77.2031C380.786 78.7656 383.163 80.9466 385.441 83.7461C387.785 86.5456 390.096 90.1589 392.375 94.5859L405.363 120.172ZM463.273 115.387C463.273 107.77 465.357 101.292 469.523 95.9531C473.755 90.6146 479.517 86.2526 486.809 82.8672C494.1 79.4167 502.596 76.9102 512.297 75.3477C521.997 73.7852 532.382 73.0039 543.449 73.0039C548.723 73.0039 553.866 73.069 558.879 73.1992C563.892 73.2643 568.449 73.3945 572.551 73.5898C576.717 73.7852 580.298 74.013 583.293 74.2734C586.288 74.5339 588.469 74.8268 589.836 75.1523C591.138 75.4779 592.18 75.8359 592.961 76.2266C593.742 76.6172 594.328 77.0729 594.719 77.5938C595.109 78.1146 595.37 78.7331 595.5 79.4492C595.63 80.1003 595.695 80.8815 595.695 81.793C595.695 82.5742 595.598 83.4531 595.402 84.4297C595.207 85.3411 594.914 86.2201 594.523 87.0664C594.133 87.8477 593.645 88.5312 593.059 89.1172C592.473 89.7031 591.757 89.9961 590.91 89.9961C590.389 89.9961 589.803 89.7682 589.152 89.3125C588.566 88.8568 587.688 88.2708 586.516 87.5547C585.409 86.8385 583.879 86.0898 581.926 85.3086C580.038 84.5273 577.466 83.7786 574.211 83.0625C571.021 82.3464 567.017 81.7604 562.199 81.3047C557.447 80.849 551.685 80.6211 544.914 80.6211V143.219H585.441V151.812H544.914V189.996C544.914 193.056 545.37 195.693 546.281 197.906C547.193 200.055 548.495 201.845 550.188 203.277C551.88 204.71 553.898 205.751 556.242 206.402C558.651 207.053 561.32 207.379 564.25 207.379C567.57 207.379 570.891 207.053 574.211 206.402C577.531 205.686 580.656 204.807 583.586 203.766C586.581 202.724 589.283 201.552 591.691 200.25C594.165 198.948 596.151 197.678 597.648 196.441L601.457 200.641C599.829 201.943 597.648 203.733 594.914 206.012C592.18 208.225 588.827 210.406 584.855 212.555C580.949 214.703 576.359 216.591 571.086 218.219C565.878 219.781 559.953 220.562 553.312 220.562C551.099 220.562 548.56 220.432 545.695 220.172C542.896 219.977 539.999 219.553 537.004 218.902C534.009 218.186 531.047 217.177 528.117 215.875C525.253 214.508 522.681 212.717 520.402 210.504C518.189 208.29 516.366 205.589 514.934 202.398C513.566 199.143 512.883 195.27 512.883 190.777V151.812H497.648V143.219H512.883V81.793C510.799 81.9883 508.391 82.3789 505.656 82.9648C502.987 83.4857 500.22 84.2669 497.355 85.3086C494.556 86.2852 491.789 87.457 489.055 88.8242C486.32 90.1914 483.879 91.7865 481.73 93.6094C479.582 95.4323 477.824 97.4831 476.457 99.7617C475.155 101.975 474.504 104.384 474.504 106.988C474.504 109.072 474.764 110.732 475.285 111.969C475.871 113.206 476.522 114.15 477.238 114.801C477.954 115.387 478.671 115.777 479.387 115.973C480.168 116.103 480.721 116.168 481.047 116.168C482.674 116.168 484.009 115.908 485.051 115.387C486.092 114.801 487.036 114.215 487.883 113.629C488.729 112.978 489.51 112.392 490.227 111.871C491.008 111.285 491.887 110.992 492.863 110.992C493.645 110.992 494.458 111.188 495.305 111.578C496.216 111.904 497.03 112.457 497.746 113.238C498.527 114.02 499.178 115.061 499.699 116.363C500.22 117.6 500.48 119.13 500.48 120.953C500.48 123.557 499.96 125.836 498.918 127.789C497.941 129.677 496.639 131.24 495.012 132.477C493.449 133.714 491.626 134.658 489.543 135.309C487.525 135.895 485.507 136.188 483.488 136.188C480.363 136.188 477.531 135.667 474.992 134.625C472.518 133.518 470.402 132.021 468.645 130.133C466.887 128.245 465.552 126.064 464.641 123.59C463.729 121.051 463.273 118.316 463.273 115.387ZM674.602 220.562C669.133 220.562 665.096 219.423 662.492 217.145C659.888 214.866 658.586 211.22 658.586 206.207V82.1836C656.503 82.3789 653.898 82.7695 650.773 83.3555C647.714 83.8763 644.491 84.6576 641.105 85.6992C637.72 86.7409 634.335 88.0104 630.949 89.5078C627.564 90.9401 624.536 92.6328 621.867 94.5859C619.198 96.474 617.017 98.6224 615.324 101.031C613.632 103.44 612.785 106.109 612.785 109.039C612.785 111.122 613.046 112.783 613.566 114.02C614.152 115.257 614.803 116.201 615.52 116.852C616.236 117.438 616.952 117.828 617.668 118.023C618.449 118.154 619.003 118.219 619.328 118.219C620.956 118.219 622.29 117.958 623.332 117.438C624.374 116.852 625.318 116.266 626.164 115.68C627.01 115.029 627.792 114.443 628.508 113.922C629.289 113.336 630.168 113.043 631.145 113.043C631.926 113.043 632.74 113.238 633.586 113.629C634.497 113.954 635.311 114.508 636.027 115.289C636.809 116.07 637.46 117.112 637.98 118.414C638.501 119.651 638.762 121.181 638.762 123.004C638.762 125.608 638.241 127.854 637.199 129.742C636.223 131.63 634.921 133.225 633.293 134.527C631.73 135.764 629.908 136.708 627.824 137.359C625.806 137.945 623.788 138.238 621.77 138.238C618.645 138.238 615.812 137.717 613.273 136.676C610.799 135.569 608.684 134.072 606.926 132.184C605.168 130.296 603.833 128.082 602.922 125.543C602.01 123.004 601.555 120.302 601.555 117.438C601.555 109.82 603.638 103.245 607.805 97.7109C612.036 92.112 617.798 87.4896 625.09 83.8438C632.382 80.1328 640.878 77.3984 650.578 75.6406C660.279 73.8828 670.663 73.0039 681.73 73.0039C687.004 73.0039 692.147 73.069 697.16 73.1992C702.173 73.2643 706.73 73.3945 710.832 73.5898C714.999 73.7852 718.579 74.013 721.574 74.2734C724.569 74.5339 726.75 74.8268 728.117 75.1523C729.419 75.4779 730.461 75.9661 731.242 76.6172C732.023 77.2031 732.609 77.8867 733 78.668C733.391 79.4492 733.651 80.2956 733.781 81.207C733.911 82.0534 733.977 82.9323 733.977 83.8438C733.977 84.5599 733.879 85.4062 733.684 86.3828C733.488 87.2943 733.195 88.1732 732.805 89.0195C732.414 89.8659 731.926 90.582 731.34 91.168C730.754 91.7539 730.038 92.0469 729.191 92.0469C728.671 92.0469 728.117 91.819 727.531 91.3633C727.01 90.9076 726.262 90.3542 725.285 89.7031C724.309 89.0521 722.974 88.3034 721.281 87.457C719.654 86.6107 717.473 85.8294 714.738 85.1133C712.069 84.3971 708.749 83.7461 704.777 83.1602C700.871 82.5742 696.118 82.1836 690.52 81.9883V206.207C690.52 211.22 689.217 214.866 686.613 217.145C684.009 219.423 680.005 220.562 674.602 220.562ZM808.195 73.0039C825.904 73.0039 839.413 76.1615 848.723 82.4766C858.098 88.7266 862.785 97.7109 862.785 109.43C862.785 115.159 862.102 120.074 860.734 124.176C859.432 128.212 857.577 131.663 855.168 134.527C852.824 137.327 849.992 139.671 846.672 141.559C843.417 143.382 839.868 144.944 836.027 146.246C838.697 146.962 841.366 148.883 844.035 152.008C846.77 155.133 849.536 159.007 852.336 163.629C855.135 168.186 857.967 173.264 860.832 178.863C863.697 184.462 866.561 190.126 869.426 195.855C872.355 201.585 875.285 207.151 878.215 212.555C881.21 217.958 884.172 222.776 887.102 227.008C890.096 231.24 893.091 234.625 896.086 237.164C899.146 239.703 902.173 240.973 905.168 240.973C906.47 240.973 907.74 240.712 908.977 240.191C910.279 239.671 911.288 239.15 912.004 238.629L914.055 242.438C912.753 243.154 911.158 243.935 909.27 244.781C907.382 245.693 905.168 246.539 902.629 247.32C900.09 248.102 897.225 248.753 894.035 249.273C890.91 249.859 887.427 250.152 883.586 250.152C877.271 250.152 871.574 248.395 866.496 244.879C861.418 241.428 857.056 236.546 853.41 230.23C849.699 223.72 846.053 216.884 842.473 209.723C838.892 202.561 835.311 195.4 831.73 188.238C828.215 181.077 824.667 174.078 821.086 167.242C817.57 160.406 814.022 153.993 810.441 148.004L811.223 144C815.064 144.977 818.384 144.749 821.184 143.316C824.048 141.884 826.392 139.573 828.215 136.383C830.038 133.128 831.372 129.156 832.219 124.469C833.13 119.781 833.586 114.703 833.586 109.234C833.586 105.328 833.163 101.682 832.316 98.2969C831.47 94.8464 830.266 91.8516 828.703 89.3125C827.206 86.7083 825.383 84.6901 823.234 83.2578C821.086 81.7604 818.677 81.0117 816.008 81.0117C813.924 81.0117 812.199 81.3372 810.832 81.9883C809.53 82.5742 808.488 83.3555 807.707 84.332C806.926 85.2435 806.372 86.2526 806.047 87.3594C805.786 88.401 805.656 89.4102 805.656 90.3867V206.207C805.656 211.22 804.322 214.866 801.652 217.145C799.048 219.423 795.044 220.562 789.641 220.562C784.172 220.562 780.135 219.423 777.531 217.145C774.927 214.866 773.625 211.22 773.625 206.207V89.4102C773.625 85.8294 771.151 84.0391 766.203 84.0391C762.622 84.0391 758.977 84.5924 755.266 85.6992C751.62 86.7409 748.299 88.2057 745.305 90.0938C742.375 91.9167 739.966 94.1302 738.078 96.7344C736.19 99.2734 735.246 102.04 735.246 105.035C735.246 107.118 735.507 108.779 736.027 110.016C736.613 111.253 737.264 112.197 737.98 112.848C738.697 113.434 739.413 113.824 740.129 114.02C740.91 114.15 741.464 114.215 741.789 114.215C743.417 114.215 744.751 113.954 745.793 113.434C746.835 112.848 747.779 112.262 748.625 111.676C749.471 111.025 750.253 110.439 750.969 109.918C751.75 109.332 752.629 109.039 753.605 109.039C754.387 109.039 755.201 109.234 756.047 109.625C756.958 109.951 757.772 110.504 758.488 111.285C759.27 112.066 759.921 113.108 760.441 114.41C760.962 115.647 761.223 117.177 761.223 119C761.223 121.604 760.702 123.85 759.66 125.738C758.684 127.626 757.382 129.221 755.754 130.523C754.191 131.76 752.368 132.704 750.285 133.355C748.267 133.941 746.249 134.234 744.23 134.234C741.105 134.234 738.273 133.714 735.734 132.672C733.26 131.565 731.145 130.068 729.387 128.18C727.629 126.292 726.294 124.078 725.383 121.539C724.471 119 724.016 116.298 724.016 113.434C724.016 108.03 725.025 103.277 727.043 99.1758C729.061 95.0091 731.893 91.4284 735.539 88.4336C739.25 85.4388 743.677 82.9648 748.82 81.0117C753.964 78.9935 759.66 77.3984 765.91 76.2266C772.16 75.0547 778.833 74.2409 785.93 73.7852C793.091 73.2643 800.513 73.0039 808.195 73.0039ZM963.664 206.207C963.664 211.22 962.329 214.866 959.66 217.145C957.056 219.423 953.052 220.562 947.648 220.562C942.18 220.562 938.143 219.423 935.539 217.145C932.935 214.866 931.633 211.22 931.633 206.207V88.6289C931.633 87.1966 931.47 86.0573 931.145 85.2109C930.819 84.3646 930.363 83.7135 929.777 83.2578C929.191 82.737 928.475 82.4115 927.629 82.2812C926.848 82.0859 925.969 81.9883 924.992 81.9883C923.56 81.9883 921.77 82.2161 919.621 82.6719C917.538 83.1276 915.324 83.8112 912.98 84.7227C910.637 85.6341 908.26 86.7734 905.852 88.1406C903.508 89.4427 901.392 90.9401 899.504 92.6328C897.681 94.3255 896.184 96.2135 895.012 98.2969C893.84 100.38 893.254 102.626 893.254 105.035C893.254 107.118 893.514 108.779 894.035 110.016C894.621 111.253 895.272 112.197 895.988 112.848C896.704 113.434 897.421 113.824 898.137 114.02C898.918 114.15 899.471 114.215 899.797 114.215C901.424 114.215 902.759 113.954 903.801 113.434C904.842 112.848 905.786 112.262 906.633 111.676C907.479 111.025 908.26 110.439 908.977 109.918C909.758 109.332 910.637 109.039 911.613 109.039C912.395 109.039 913.208 109.234 914.055 109.625C914.966 109.951 915.78 110.504 916.496 111.285C917.277 112.066 917.928 113.108 918.449 114.41C918.97 115.647 919.23 117.177 919.23 119C919.23 121.604 918.71 123.85 917.668 125.738C916.691 127.626 915.389 129.221 913.762 130.523C912.199 131.76 910.376 132.704 908.293 133.355C906.275 133.941 904.257 134.234 902.238 134.234C899.113 134.234 896.281 133.714 893.742 132.672C891.268 131.565 889.152 130.068 887.395 128.18C885.637 126.292 884.302 124.078 883.391 121.539C882.479 119 882.023 116.298 882.023 113.434C882.023 108.941 882.837 104.84 884.465 101.129C886.092 97.3529 888.306 93.9674 891.105 90.9727C893.97 87.9779 897.29 85.3737 901.066 83.1602C904.908 80.8815 909.042 78.9935 913.469 77.4961C917.896 75.9987 922.518 74.8919 927.336 74.1758C932.154 73.3945 936.971 73.0039 941.789 73.0039C947.128 73.0039 951.262 73.5247 954.191 74.5664C957.186 75.543 959.367 76.7474 960.734 78.1797C962.167 79.612 963.013 81.1094 963.273 82.6719C963.534 84.2344 963.664 85.5365 963.664 86.5781V206.207Z" fill="#6E07F3"/>
</svg>
