<svg width="814" height="215" viewBox="0 0 814 215" fill="none" xmlns="http://www.w3.org/2000/svg">
<circle cx="103" cy="112" r="98.5" fill="white" stroke="#2F4FFF" stroke-width="9"/>
<mask id="mask0_1_57" style="mask-type:alpha" maskUnits="userSpaceOnUse" x="0" y="0" width="206" height="206">
<circle cx="103" cy="103" r="98.5" fill="white" stroke="#2F4FFF" stroke-width="9"/>
</mask>
<g mask="url(#mask0_1_57)">
<path d="M107.182 57.881L144.728 123.472C146.445 126.472 144.279 130.208 140.822 130.208H65.7315C62.2748 130.208 60.1088 126.472 61.826 123.472L99.3714 57.881C101.1 54.8617 105.454 54.8617 107.182 57.881Z" fill="white" stroke="#2F4FFF" stroke-width="9"/>
<path d="M106.913 62.018L111.169 67.8541C113.338 70.8278 111.214 75.0056 107.533 75.0056H99.0207C95.3402 75.0056 93.2162 70.8278 95.3848 67.8541L99.641 62.018C101.438 59.5534 105.115 59.5534 106.913 62.018Z" fill="#2F4FFF" stroke="#2F4FFF" stroke-width="9"/>
<rect x="53.5" y="118.681" width="33.2599" height="99.8192" rx="16.6299" fill="white" stroke="#2F4FFF" stroke-width="9"/>
<rect x="86.4209" y="118.681" width="33.2599" height="99.8192" rx="16.6299" fill="white" stroke="#2F4FFF" stroke-width="9"/>
<rect x="119.342" y="118.681" width="33.2599" height="99.8192" rx="16.6299" fill="white" stroke="#2F4FFF" stroke-width="9"/>
</g>
<path d="M259.902 103.808C259.902 105.347 260.081 106.601 260.439 107.567C260.833 108.498 261.388 109.232 262.104 109.77C262.821 110.307 263.716 110.683 264.79 110.897C265.9 111.076 267.189 111.166 268.657 111.166C271.021 111.166 273.151 110.933 275.049 110.468C276.947 109.966 278.612 109.429 280.044 108.856C281.476 108.248 282.676 107.693 283.643 107.191C284.645 106.69 285.415 106.439 285.952 106.439C286.632 106.439 287.17 106.654 287.563 107.084C287.957 107.514 288.154 108.14 288.154 108.964C288.154 110.396 288.011 111.435 287.725 112.079C287.438 112.688 286.847 113.153 285.952 113.476C282.694 114.621 279.023 115.463 274.941 116C270.859 116.573 266.24 116.859 261.084 116.859C257.253 116.859 254.119 116.68 251.685 116.322C249.25 116 247.334 115.409 245.938 114.55C244.541 113.69 243.574 112.527 243.037 111.059C242.536 109.555 242.285 107.639 242.285 105.312V44.2959C242.285 43.5081 242.196 42.8815 242.017 42.416C241.838 41.9505 241.587 41.5924 241.265 41.3418C240.942 41.0553 240.549 40.8763 240.083 40.8047C239.653 40.6973 239.17 40.6436 238.633 40.6436C237.845 40.6436 236.86 40.7689 235.679 41.0195C234.533 41.2702 233.315 41.6462 232.026 42.1475C230.737 42.6488 229.43 43.2754 228.105 44.0273C226.816 44.7435 225.653 45.5671 224.614 46.498C223.612 47.429 222.788 48.4674 222.144 49.6133C221.499 50.7591 221.177 51.9945 221.177 53.3193C221.177 54.4652 221.32 55.3783 221.606 56.0586C221.929 56.7389 222.287 57.2581 222.681 57.6162C223.075 57.9385 223.468 58.1533 223.862 58.2607C224.292 58.3324 224.596 58.3682 224.775 58.3682C225.671 58.3682 226.405 58.2249 226.978 57.9385C227.55 57.6162 228.07 57.2939 228.535 56.9717C229.001 56.6136 229.43 56.2913 229.824 56.0049C230.254 55.6826 230.737 55.5215 231.274 55.5215C231.704 55.5215 232.152 55.6289 232.617 55.8438C233.118 56.0228 233.566 56.3271 233.96 56.7568C234.39 57.1865 234.748 57.7594 235.034 58.4756C235.321 59.1559 235.464 59.9974 235.464 61C235.464 62.4323 235.177 63.6676 234.604 64.7061C234.067 65.7445 233.351 66.6217 232.456 67.3379C231.597 68.0182 230.594 68.5374 229.448 68.8955C228.338 69.2178 227.228 69.3789 226.118 69.3789C224.399 69.3789 222.842 69.0924 221.445 68.5195C220.085 67.9108 218.921 67.0872 217.954 66.0488C216.987 65.0104 216.253 63.793 215.752 62.3965C215.251 61 215 59.514 215 57.9385C215 55.4678 215.448 53.2119 216.343 51.1709C217.238 49.0941 218.455 47.2321 219.995 45.585C221.571 43.9378 223.397 42.5055 225.474 41.2881C227.586 40.0348 229.86 38.9964 232.295 38.1729C234.73 37.3493 237.272 36.7406 239.922 36.3467C242.572 35.917 245.221 35.7021 247.871 35.7021C250.807 35.7021 253.081 35.9886 254.692 36.5615C256.34 37.0986 257.539 37.7611 258.291 38.5488C259.079 39.3366 259.544 40.1602 259.688 41.0195C259.831 41.8789 259.902 42.5951 259.902 43.168V103.808ZM319.038 88.1777C319.038 87.2826 318.752 86.6022 318.179 86.1367C317.606 85.6712 316.872 85.4385 315.977 85.4385C314.723 85.4385 313.524 85.7249 312.378 86.2979C311.268 86.8708 310.283 87.7122 309.424 88.8223C308.564 89.9323 307.884 91.3109 307.383 92.958C306.882 94.5693 306.631 96.4492 306.631 98.5977C306.631 100.674 306.774 102.393 307.061 103.754C307.383 105.115 307.795 106.207 308.296 107.03C308.833 107.818 309.442 108.373 310.122 108.695C310.802 109.018 311.519 109.179 312.271 109.179C313.201 109.179 314.079 108.946 314.902 108.48C315.726 107.979 316.442 107.353 317.051 106.601C317.66 105.849 318.143 105.007 318.501 104.076C318.859 103.145 319.038 102.214 319.038 101.283V88.1777ZM310.498 64.6523C309.281 64.6523 308.153 64.7956 307.114 65.082C306.076 65.3685 305.181 65.7266 304.429 66.1562C303.677 66.5859 303.086 67.0693 302.656 67.6064C302.227 68.1077 302.012 68.5911 302.012 69.0566C302.012 69.5938 302.28 69.9876 302.817 70.2383C303.39 70.4531 304.017 70.7217 304.697 71.0439C305.378 71.3304 305.986 71.7601 306.523 72.333C307.096 72.8701 307.383 73.7116 307.383 74.8574C307.383 75.6094 307.222 76.3076 306.899 76.9521C306.613 77.5609 306.201 78.1159 305.664 78.6172C305.163 79.0827 304.554 79.4587 303.838 79.7451C303.158 79.9958 302.441 80.1211 301.689 80.1211C299.684 80.1211 298.055 79.4408 296.802 78.0801C295.584 76.7194 294.976 74.9111 294.976 72.6553C294.976 70.471 295.549 68.609 296.694 67.0693C297.84 65.4938 299.326 64.2048 301.152 63.2021C303.014 62.1995 305.109 61.4655 307.437 61C309.764 60.4987 312.091 60.248 314.419 60.248C317.212 60.248 319.88 60.5524 322.422 61.1611C324.964 61.7699 327.202 62.7367 329.136 64.0615C331.105 65.3864 332.663 67.0693 333.809 69.1104C334.99 71.1514 335.581 73.6221 335.581 76.5225V106.869C335.581 107.191 335.599 107.549 335.635 107.943C335.671 108.337 335.76 108.695 335.903 109.018C336.047 109.34 336.261 109.608 336.548 109.823C336.834 110.038 337.246 110.146 337.783 110.146C338.428 110.146 339.019 109.913 339.556 109.447C340.129 108.946 340.63 108.445 341.06 107.943L342.402 109.071C341.865 109.823 341.221 110.647 340.469 111.542C339.717 112.437 338.804 113.279 337.729 114.066C336.655 114.854 335.402 115.517 333.97 116.054C332.537 116.591 330.908 116.859 329.082 116.859C326.826 116.859 324.821 116.197 323.066 114.872C321.312 113.511 320.166 111.435 319.629 108.642C318.483 110.181 317.284 111.47 316.03 112.509C314.813 113.547 313.56 114.389 312.271 115.033C310.981 115.678 309.674 116.143 308.35 116.43C307.061 116.716 305.754 116.859 304.429 116.859C302.71 116.859 301.045 116.591 299.434 116.054C297.822 115.517 296.372 114.675 295.083 113.529C293.83 112.348 292.809 110.826 292.021 108.964C291.27 107.102 290.894 104.828 290.894 102.143C290.894 98.8841 291.538 96.2165 292.827 94.1396C294.116 92.0628 295.799 90.3262 297.876 88.9297C299.989 87.4974 302.37 86.2799 305.02 85.2773C307.705 84.2747 310.444 83.2184 313.237 82.1084C315.314 81.2848 316.818 80.0674 317.749 78.4561C318.716 76.8089 319.199 75.126 319.199 73.4072C319.199 70.7575 318.411 68.6449 316.836 67.0693C315.296 65.458 313.184 64.6523 310.498 64.6523ZM366.25 111.273C366.25 111.739 366.16 112.294 365.981 112.938C365.838 113.583 365.462 114.192 364.854 114.765C364.281 115.338 363.421 115.821 362.275 116.215C361.165 116.645 359.661 116.859 357.764 116.859C355.866 116.859 354.38 116.627 353.306 116.161C352.231 115.731 351.426 115.212 350.889 114.604C350.387 113.995 350.065 113.368 349.922 112.724C349.814 112.079 349.761 111.56 349.761 111.166V41.8789C349.761 40.8405 349.51 39.9453 349.009 39.1934C348.543 38.4056 347.738 38.0117 346.592 38.0117C345.983 38.0117 345.446 38.1191 344.98 38.334C344.551 38.513 344.085 38.7995 343.584 39.1934L342.51 37.9043C343.333 37.224 344.246 36.5615 345.249 35.917C346.252 35.2367 347.344 34.6458 348.525 34.1445C349.743 33.6432 351.032 33.2314 352.393 32.9092C353.753 32.5869 355.186 32.4258 356.689 32.4258C359.017 32.4258 360.825 32.748 362.114 33.3926C363.403 34.0013 364.352 34.7712 364.961 35.7021C365.57 36.5973 365.928 37.5641 366.035 38.6025C366.178 39.6051 366.25 40.5003 366.25 41.2881V111.273ZM443.164 106.439C443.164 107.263 443.236 108.051 443.379 108.803C443.558 109.519 443.88 110.146 444.346 110.683C444.847 111.22 445.509 111.649 446.333 111.972C447.192 112.294 448.302 112.455 449.663 112.455C451.632 112.455 453.441 111.9 455.088 110.79C456.735 109.644 458.149 108.194 459.331 106.439C460.513 104.649 461.426 102.662 462.07 100.478C462.715 98.2575 463.037 96.0553 463.037 93.8711C463.037 90.6126 462.59 87.748 461.694 85.2773C460.835 82.7708 459.618 80.6582 458.042 78.9395C456.466 77.2207 454.604 75.8958 452.456 74.9648C450.308 73.998 447.98 73.443 445.474 73.2998L446.548 70.5605C448.123 70.6322 449.627 70.4173 451.06 69.916C452.492 69.4147 453.745 68.5374 454.819 67.2842C455.929 66.0309 456.807 64.348 457.451 62.2354C458.096 60.0869 458.418 57.4014 458.418 54.1787C458.418 51.9945 458.149 50.0251 457.612 48.2705C457.075 46.516 456.359 45.0479 455.464 43.8662C454.604 42.6488 453.584 41.7178 452.402 41.0732C451.257 40.4287 450.075 40.1064 448.857 40.1064C448.105 40.1064 447.371 40.196 446.655 40.375C445.975 40.554 445.366 40.8584 444.829 41.2881C444.328 41.7178 443.916 42.2907 443.594 43.0068C443.307 43.6872 443.164 44.5465 443.164 45.585V106.439ZM444.238 35.7021C454.622 35.7021 462.249 37.3314 467.119 40.5898C472.025 43.8125 474.478 48.5212 474.478 54.7158C474.478 56.2555 474.299 57.6699 473.94 58.959C473.618 60.248 473.188 61.4297 472.651 62.5039C472.114 63.5423 471.506 64.4733 470.825 65.2969C470.145 66.1204 469.447 66.8366 468.73 67.4453C467.048 68.9134 465.15 70.0592 463.037 70.8828V71.6885C466.367 72.0824 469.357 73.085 472.007 74.6963C473.117 75.3766 474.209 76.236 475.283 77.2744C476.357 78.277 477.306 79.5124 478.13 80.9805C478.989 82.4128 479.67 84.0957 480.171 86.0293C480.708 87.9271 480.977 90.1113 480.977 92.582C480.977 96.3418 480.296 99.7256 478.936 102.733C477.575 105.741 475.552 108.301 472.866 110.414C470.181 112.491 466.833 114.084 462.822 115.194C458.812 116.304 454.157 116.859 448.857 116.859C443.952 116.859 439.959 116.555 436.88 115.946C433.8 115.338 431.401 114.46 429.683 113.314C427.964 112.133 426.782 110.718 426.138 109.071C425.529 107.424 425.225 105.562 425.225 103.485V44.7256C425.225 42.7562 423.864 41.7715 421.143 41.7715C419.173 41.7715 417.168 42.0758 415.127 42.6846C413.122 43.2575 411.296 44.0632 409.648 45.1016C408.037 46.1042 406.712 47.3216 405.674 48.7539C404.635 50.1504 404.116 51.6722 404.116 53.3193C404.116 54.4652 404.259 55.3783 404.546 56.0586C404.868 56.7389 405.226 57.2581 405.62 57.6162C406.014 57.9385 406.408 58.1533 406.802 58.2607C407.231 58.3324 407.536 58.3682 407.715 58.3682C408.61 58.3682 409.344 58.2249 409.917 57.9385C410.49 57.6162 411.009 57.2939 411.475 56.9717C411.94 56.6136 412.37 56.2913 412.764 56.0049C413.193 55.6826 413.677 55.5215 414.214 55.5215C414.644 55.5215 415.091 55.6289 415.557 55.8438C416.058 56.0228 416.506 56.3271 416.899 56.7568C417.329 57.1865 417.687 57.7594 417.974 58.4756C418.26 59.1559 418.403 59.9974 418.403 61C418.403 62.4323 418.117 63.6676 417.544 64.7061C417.007 65.7445 416.291 66.6217 415.396 67.3379C414.536 68.0182 413.534 68.5374 412.388 68.8955C411.278 69.2178 410.168 69.3789 409.058 69.3789C407.339 69.3789 405.781 69.0924 404.385 68.5195C403.024 67.9108 401.86 67.0872 400.894 66.0488C399.927 65.0104 399.193 63.793 398.691 62.3965C398.19 61 397.939 59.514 397.939 57.9385C397.939 54.9665 398.494 52.3525 399.604 50.0967C400.715 47.805 402.272 45.8356 404.277 44.1885C406.318 42.5413 408.753 41.1807 411.582 40.1064C414.411 38.9964 417.544 38.1191 420.981 37.4746C424.419 36.8301 428.089 36.3825 431.992 36.1318C435.931 35.8454 440.013 35.7021 444.238 35.7021ZM515.19 88.1777C515.19 87.2826 514.904 86.6022 514.331 86.1367C513.758 85.6712 513.024 85.4385 512.129 85.4385C510.876 85.4385 509.676 85.7249 508.53 86.2979C507.42 86.8708 506.436 87.7122 505.576 88.8223C504.717 89.9323 504.036 91.3109 503.535 92.958C503.034 94.5693 502.783 96.4492 502.783 98.5977C502.783 100.674 502.926 102.393 503.213 103.754C503.535 105.115 503.947 106.207 504.448 107.03C504.985 107.818 505.594 108.373 506.274 108.695C506.955 109.018 507.671 109.179 508.423 109.179C509.354 109.179 510.231 108.946 511.055 108.48C511.878 107.979 512.594 107.353 513.203 106.601C513.812 105.849 514.295 105.007 514.653 104.076C515.011 103.145 515.19 102.214 515.19 101.283V88.1777ZM506.65 64.6523C505.433 64.6523 504.305 64.7956 503.267 65.082C502.228 65.3685 501.333 65.7266 500.581 66.1562C499.829 66.5859 499.238 67.0693 498.809 67.6064C498.379 68.1077 498.164 68.5911 498.164 69.0566C498.164 69.5938 498.433 69.9876 498.97 70.2383C499.543 70.4531 500.169 70.7217 500.85 71.0439C501.53 71.3304 502.139 71.7601 502.676 72.333C503.249 72.8701 503.535 73.7116 503.535 74.8574C503.535 75.6094 503.374 76.3076 503.052 76.9521C502.765 77.5609 502.354 78.1159 501.816 78.6172C501.315 79.0827 500.706 79.4587 499.99 79.7451C499.31 79.9958 498.594 80.1211 497.842 80.1211C495.837 80.1211 494.207 79.4408 492.954 78.0801C491.737 76.7194 491.128 74.9111 491.128 72.6553C491.128 70.471 491.701 68.609 492.847 67.0693C493.993 65.4938 495.479 64.2048 497.305 63.2021C499.167 62.1995 501.261 61.4655 503.589 61C505.916 60.4987 508.244 60.248 510.571 60.248C513.364 60.248 516.032 60.5524 518.574 61.1611C521.117 61.7699 523.354 62.7367 525.288 64.0615C527.257 65.3864 528.815 67.0693 529.961 69.1104C531.143 71.1514 531.733 73.6221 531.733 76.5225V106.869C531.733 107.191 531.751 107.549 531.787 107.943C531.823 108.337 531.912 108.695 532.056 109.018C532.199 109.34 532.414 109.608 532.7 109.823C532.987 110.038 533.398 110.146 533.936 110.146C534.58 110.146 535.171 109.913 535.708 109.447C536.281 108.946 536.782 108.445 537.212 107.943L538.555 109.071C538.018 109.823 537.373 110.647 536.621 111.542C535.869 112.437 534.956 113.279 533.882 114.066C532.808 114.854 531.554 115.517 530.122 116.054C528.69 116.591 527.061 116.859 525.234 116.859C522.979 116.859 520.973 116.197 519.219 114.872C517.464 113.511 516.318 111.435 515.781 108.642C514.635 110.181 513.436 111.47 512.183 112.509C510.965 113.547 509.712 114.389 508.423 115.033C507.134 115.678 505.827 116.143 504.502 116.43C503.213 116.716 501.906 116.859 500.581 116.859C498.862 116.859 497.197 116.591 495.586 116.054C493.975 115.517 492.524 114.675 491.235 113.529C489.982 112.348 488.962 110.826 488.174 108.964C487.422 107.102 487.046 104.828 487.046 102.143C487.046 98.8841 487.69 96.2165 488.979 94.1396C490.269 92.0628 491.951 90.3262 494.028 88.9297C496.141 87.4974 498.522 86.2799 501.172 85.2773C503.857 84.2747 506.597 83.2184 509.39 82.1084C511.466 81.2848 512.97 80.0674 513.901 78.4561C514.868 76.8089 515.352 75.126 515.352 73.4072C515.352 70.7575 514.564 68.6449 512.988 67.0693C511.449 65.458 509.336 64.6523 506.65 64.6523ZM562.402 70.4531C563.727 68.5553 565.231 66.8545 566.914 65.3506C567.594 64.7061 568.346 64.0794 569.17 63.4707C570.029 62.862 570.924 62.3249 571.855 61.8594C572.822 61.3581 573.825 60.9642 574.863 60.6777C575.938 60.3913 577.03 60.248 578.14 60.248C580.539 60.248 582.687 60.7135 584.585 61.6445C586.483 62.5755 588.076 64.1331 589.365 66.3174C590.654 68.5016 591.639 71.402 592.319 75.0186C593 78.5993 593.34 83.0573 593.34 88.3926C593.34 93.5846 592.874 98.0964 591.943 101.928C591.012 105.759 589.795 109.018 588.291 111.703C586.787 114.389 585.086 116.573 583.188 118.256C581.291 119.975 579.375 121.317 577.441 122.284C575.508 123.251 573.646 123.913 571.855 124.271C570.065 124.665 568.525 124.88 567.236 124.916L566.699 122.714C568.311 122.32 569.743 121.586 570.996 120.512C572.249 119.438 573.306 117.683 574.165 115.248C575.024 112.777 575.669 109.465 576.099 105.312C576.564 101.158 576.797 95.8047 576.797 89.252C576.797 84.7402 576.582 81.1416 576.152 78.4561C575.758 75.7347 575.221 73.6758 574.541 72.2793C573.896 70.847 573.145 69.916 572.285 69.4863C571.462 69.0208 570.62 68.7881 569.761 68.7881C568.722 68.7881 567.809 69.0745 567.021 69.6475C566.234 70.1846 565.535 70.8112 564.927 71.5273C564.354 72.2435 563.853 72.9596 563.423 73.6758C563.029 74.3919 562.689 74.929 562.402 75.2871V111.166C562.402 111.632 562.331 112.204 562.188 112.885C562.044 113.529 561.686 114.156 561.113 114.765C560.576 115.338 559.753 115.821 558.643 116.215C557.568 116.645 556.082 116.859 554.185 116.859C552.287 116.859 550.783 116.627 549.673 116.161C548.563 115.731 547.721 115.212 547.148 114.604C546.611 113.995 546.271 113.368 546.128 112.724C545.985 112.079 545.913 111.56 545.913 111.166V41.8789C545.913 40.8405 545.662 39.9453 545.161 39.1934C544.696 38.4056 543.89 38.0117 542.744 38.0117C542.135 38.0117 541.598 38.1191 541.133 38.334C540.703 38.513 540.238 38.7995 539.736 39.1934L538.662 37.9043C539.486 37.224 540.399 36.5615 541.401 35.917C542.404 35.2367 543.496 34.6458 544.678 34.1445C545.895 33.6432 547.184 33.2314 548.545 32.9092C549.906 32.5869 551.338 32.4258 552.842 32.4258C555.169 32.4258 556.978 32.748 558.267 33.3926C559.556 34.0013 560.505 34.7712 561.113 35.7021C561.722 36.5973 562.08 37.5641 562.188 38.6025C562.331 39.6051 562.402 40.5003 562.402 41.2881V70.4531ZM628.628 88.1777C628.628 87.2826 628.341 86.6022 627.769 86.1367C627.196 85.6712 626.462 85.4385 625.566 85.4385C624.313 85.4385 623.114 85.7249 621.968 86.2979C620.858 86.8708 619.873 87.7122 619.014 88.8223C618.154 89.9323 617.474 91.3109 616.973 92.958C616.471 94.5693 616.221 96.4492 616.221 98.5977C616.221 100.674 616.364 102.393 616.65 103.754C616.973 105.115 617.384 106.207 617.886 107.03C618.423 107.818 619.032 108.373 619.712 108.695C620.392 109.018 621.108 109.179 621.86 109.179C622.791 109.179 623.669 108.946 624.492 108.48C625.316 107.979 626.032 107.353 626.641 106.601C627.249 105.849 627.733 105.007 628.091 104.076C628.449 103.145 628.628 102.214 628.628 101.283V88.1777ZM620.088 64.6523C618.87 64.6523 617.743 64.7956 616.704 65.082C615.666 65.3685 614.771 65.7266 614.019 66.1562C613.267 66.5859 612.676 67.0693 612.246 67.6064C611.816 68.1077 611.602 68.5911 611.602 69.0566C611.602 69.5938 611.87 69.9876 612.407 70.2383C612.98 70.4531 613.607 70.7217 614.287 71.0439C614.967 71.3304 615.576 71.7601 616.113 72.333C616.686 72.8701 616.973 73.7116 616.973 74.8574C616.973 75.6094 616.812 76.3076 616.489 76.9521C616.203 77.5609 615.791 78.1159 615.254 78.6172C614.753 79.0827 614.144 79.4587 613.428 79.7451C612.747 79.9958 612.031 80.1211 611.279 80.1211C609.274 80.1211 607.645 79.4408 606.392 78.0801C605.174 76.7194 604.565 74.9111 604.565 72.6553C604.565 70.471 605.138 68.609 606.284 67.0693C607.43 65.4938 608.916 64.2048 610.742 63.2021C612.604 62.1995 614.699 61.4655 617.026 61C619.354 60.4987 621.681 60.248 624.009 60.248C626.802 60.248 629.469 60.5524 632.012 61.1611C634.554 61.7699 636.792 62.7367 638.726 64.0615C640.695 65.3864 642.253 67.0693 643.398 69.1104C644.58 71.1514 645.171 73.6221 645.171 76.5225V106.869C645.171 107.191 645.189 107.549 645.225 107.943C645.26 108.337 645.35 108.695 645.493 109.018C645.636 109.34 645.851 109.608 646.138 109.823C646.424 110.038 646.836 110.146 647.373 110.146C648.018 110.146 648.608 109.913 649.146 109.447C649.718 108.946 650.22 108.445 650.649 107.943L651.992 109.071C651.455 109.823 650.811 110.647 650.059 111.542C649.307 112.437 648.394 113.279 647.319 114.066C646.245 114.854 644.992 115.517 643.56 116.054C642.127 116.591 640.498 116.859 638.672 116.859C636.416 116.859 634.411 116.197 632.656 114.872C630.902 113.511 629.756 111.435 629.219 108.642C628.073 110.181 626.873 111.47 625.62 112.509C624.403 113.547 623.149 114.389 621.86 115.033C620.571 115.678 619.264 116.143 617.939 116.43C616.65 116.716 615.343 116.859 614.019 116.859C612.3 116.859 610.635 116.591 609.023 116.054C607.412 115.517 605.962 114.675 604.673 113.529C603.42 112.348 602.399 110.826 601.611 108.964C600.859 107.102 600.483 104.828 600.483 102.143C600.483 98.8841 601.128 96.2165 602.417 94.1396C603.706 92.0628 605.389 90.3262 607.466 88.9297C609.578 87.4974 611.96 86.2799 614.609 85.2773C617.295 84.2747 620.034 83.2184 622.827 82.1084C624.904 81.2848 626.408 80.0674 627.339 78.4561C628.306 76.8089 628.789 75.126 628.789 73.4072C628.789 70.7575 628.001 68.6449 626.426 67.0693C624.886 65.458 622.773 64.6523 620.088 64.6523ZM689.053 86.835C689.053 86.4411 689.053 85.6533 689.053 84.4717C689.053 83.2542 689.017 81.8757 688.945 80.3359C688.874 78.7604 688.748 77.0954 688.569 75.3408C688.39 73.5863 688.104 71.957 687.71 70.4531C686.851 69.3431 685.884 68.3584 684.81 67.499C683.771 66.6038 682.428 66.1562 680.781 66.1562C677.988 66.1562 675.929 67.9824 674.604 71.6348C673.315 75.2871 672.671 80.9447 672.671 88.6074C672.671 91.9733 672.814 95.0527 673.101 97.8457C673.423 100.639 673.888 103.038 674.497 105.043C675.142 107.048 675.947 108.606 676.914 109.716C677.917 110.826 679.098 111.381 680.459 111.381C686.188 111.381 689.053 103.199 689.053 86.835ZM688.408 63.2021C687.728 59.6214 686.779 56.2913 685.562 53.2119C684.344 50.0967 682.876 47.4111 681.157 45.1553C679.474 42.8994 677.541 41.127 675.356 39.8379C673.208 38.5488 670.881 37.9043 668.374 37.9043C666.942 37.9043 665.635 38.0833 664.453 38.4414C663.307 38.7995 662.305 39.2292 661.445 39.7305C660.586 40.196 659.87 40.6615 659.297 41.127C658.76 41.5566 658.366 41.8789 658.115 42.0938L656.719 40.2139C657.578 39.1038 658.617 38.0654 659.834 37.0986C661.087 36.1318 662.448 35.3083 663.916 34.6279C665.384 33.9476 666.924 33.4105 668.535 33.0166C670.182 32.6227 671.812 32.4258 673.423 32.4258C678.722 32.4258 683.377 33.5895 687.388 35.917C691.398 38.2087 694.746 41.4671 697.432 45.6924C700.117 49.9176 702.14 55.0202 703.501 61C704.862 66.9798 705.542 73.6221 705.542 80.9268C705.542 86.835 704.933 92.027 703.716 96.5029C702.534 100.979 700.833 104.739 698.613 107.782C696.393 110.79 693.69 113.064 690.503 114.604C687.352 116.107 683.789 116.859 679.814 116.859C677.057 116.859 674.246 116.376 671.382 115.409C668.553 114.407 665.975 112.795 663.647 110.575C661.356 108.355 659.476 105.455 658.008 101.874C656.54 98.2575 655.806 93.8353 655.806 88.6074C655.806 84.0957 656.432 80.0853 657.686 76.5762C658.975 73.0671 660.693 70.113 662.842 67.7139C664.99 65.279 667.479 63.4349 670.308 62.1816C673.136 60.8926 676.126 60.248 679.277 60.248C680.495 60.248 681.587 60.3555 682.554 60.5703C683.521 60.7493 684.362 60.9821 685.078 61.2686C685.794 61.555 686.421 61.8773 686.958 62.2354C687.495 62.5576 687.979 62.8799 688.408 63.2021ZM762.798 106.654C762.798 106.977 762.816 107.335 762.852 107.729C762.887 108.087 762.977 108.445 763.12 108.803C763.263 109.125 763.478 109.394 763.765 109.608C764.051 109.823 764.463 109.931 765 109.931C765.68 109.931 766.289 109.698 766.826 109.232C767.363 108.731 767.865 108.23 768.33 107.729L769.619 108.856C769.082 109.608 768.402 110.45 767.578 111.381C766.79 112.276 765.824 113.135 764.678 113.959C763.532 114.783 762.225 115.463 760.757 116C759.289 116.573 757.624 116.859 755.762 116.859C754.186 116.859 752.808 116.645 751.626 116.215C750.48 115.821 749.495 115.284 748.672 114.604C747.884 113.887 747.293 113.064 746.899 112.133C746.506 111.166 746.309 110.146 746.309 109.071V106.654C744.518 108.588 742.638 110.289 740.669 111.757C739.81 112.401 738.896 113.028 737.93 113.637C736.963 114.245 735.96 114.8 734.922 115.302C733.883 115.767 732.809 116.143 731.699 116.43C730.589 116.716 729.479 116.859 728.369 116.859C726.221 116.859 724.377 116.483 722.837 115.731C721.333 114.944 720.116 113.923 719.185 112.67C718.254 111.417 717.573 110.002 717.144 108.427C716.714 106.851 716.499 105.276 716.499 103.7V70.4531C716.499 70.1309 716.481 69.7907 716.445 69.4326C716.41 69.0387 716.32 68.6807 716.177 68.3584C716.034 68.0003 715.819 67.7139 715.532 67.499C715.246 67.2842 714.834 67.1768 714.297 67.1768C713.652 67.1768 713.044 67.4274 712.471 67.9287C711.934 68.3942 711.45 68.8776 711.021 69.3789L709.678 68.251C710.215 67.499 710.877 66.6755 711.665 65.7803C712.489 64.8493 713.473 63.972 714.619 63.1484C715.765 62.3249 717.072 61.6445 718.54 61.1074C720.044 60.5345 721.709 60.248 723.535 60.248C725.111 60.248 726.489 60.4629 727.671 60.8926C728.853 61.2865 729.837 61.8415 730.625 62.5576C731.413 63.238 732.004 64.0615 732.397 65.0283C732.791 65.9593 732.988 66.9619 732.988 68.0361V103.915C732.988 104.416 733.06 104.936 733.203 105.473C733.382 105.974 733.615 106.439 733.901 106.869C734.224 107.299 734.618 107.657 735.083 107.943C735.549 108.194 736.104 108.319 736.748 108.319C737.786 108.319 738.825 108.051 739.863 107.514C740.902 106.977 741.851 106.35 742.71 105.634C743.569 104.882 744.303 104.148 744.912 103.432C745.557 102.715 746.022 102.178 746.309 101.82V70.4531C746.309 70.1309 746.291 69.7907 746.255 69.4326C746.219 69.0387 746.13 68.6807 745.986 68.3584C745.843 68.0003 745.628 67.7139 745.342 67.499C745.055 67.2842 744.644 67.1768 744.106 67.1768C743.462 67.1768 742.853 67.4274 742.28 67.9287C741.743 68.3942 741.26 68.8776 740.83 69.3789L739.487 68.251C740.024 67.499 740.687 66.6755 741.475 65.7803C742.298 64.8493 743.283 63.972 744.429 63.1484C745.575 62.3249 746.882 61.6445 748.35 61.1074C749.854 60.5345 751.519 60.248 753.345 60.248C754.92 60.248 756.299 60.4629 757.48 60.8926C758.662 61.2865 759.647 61.8415 760.435 62.5576C761.222 63.238 761.813 64.0615 762.207 65.0283C762.601 65.9593 762.798 66.9619 762.798 68.0361V106.654ZM794.111 71.5811C795.472 69.5042 796.922 67.6243 798.462 65.9414C799.106 65.2253 799.805 64.527 800.557 63.8467C801.309 63.1663 802.078 62.5576 802.866 62.0205C803.69 61.4834 804.531 61.0537 805.391 60.7314C806.25 60.4092 807.109 60.248 807.969 60.248C809.795 60.248 811.227 60.8031 812.266 61.9131C813.304 62.9873 813.823 64.5091 813.823 66.4785C813.823 67.696 813.716 68.8776 813.501 70.0234C813.322 71.1335 812.946 72.4941 812.373 74.1055H810.869C810.654 72.9954 810.153 72.0824 809.365 71.3662C808.577 70.6143 807.432 70.2383 805.928 70.2383C804.818 70.2383 803.726 70.4531 802.651 70.8828C801.577 71.2767 800.521 71.778 799.482 72.3867C798.48 72.9954 797.513 73.6579 796.582 74.374C795.687 75.0902 794.863 75.7705 794.111 76.415V111.273C794.111 111.739 794.04 112.294 793.896 112.938C793.753 113.583 793.395 114.192 792.822 114.765C792.285 115.338 791.462 115.821 790.352 116.215C789.277 116.645 787.791 116.859 785.894 116.859C783.996 116.859 782.492 116.627 781.382 116.161C780.308 115.731 779.484 115.212 778.911 114.604C778.338 113.995 777.98 113.368 777.837 112.724C777.694 112.079 777.622 111.56 777.622 111.166V69.7012C777.622 68.6628 777.371 67.7676 776.87 67.0156C776.405 66.2279 775.599 65.834 774.453 65.834C773.844 65.834 773.325 65.9414 772.896 66.1562C772.466 66.3711 772 66.6755 771.499 67.0693L770.371 65.7266C771.195 65.0462 772.108 64.3838 773.11 63.7393C774.149 63.0589 775.259 62.4681 776.44 61.9668C777.622 61.4655 778.893 61.0537 780.254 60.7314C781.615 60.4092 783.047 60.248 784.551 60.248C786.09 60.248 787.397 60.4629 788.472 60.8926C789.582 61.2865 790.477 61.8236 791.157 62.5039C791.873 63.1484 792.428 63.8825 792.822 64.7061C793.216 65.5296 793.503 66.3711 793.682 67.2305C793.896 68.054 794.022 68.8597 794.058 69.6475C794.093 70.3994 794.111 71.0439 794.111 71.5811Z" fill="#2F4FFF"/>
<path d="M250.084 184.978C250.084 186.77 249.65 188.296 248.782 189.556C247.914 190.788 246.668 191.74 245.044 192.412C243.448 193.084 241.558 193.42 239.374 193.42C238.254 193.42 237.176 193.364 236.14 193.252C235.132 193.14 234.208 192.986 233.368 192.79C232.528 192.566 231.786 192.3 231.142 191.992V188.38C232.15 188.828 233.396 189.234 234.88 189.598C236.392 189.962 237.946 190.144 239.542 190.144C241.026 190.144 242.272 189.948 243.28 189.556C244.288 189.164 245.044 188.604 245.548 187.876C246.052 187.148 246.304 186.294 246.304 185.314C246.304 184.334 246.094 183.508 245.674 182.836C245.254 182.164 244.526 181.548 243.49 180.988C242.482 180.4 241.068 179.784 239.248 179.14C237.96 178.664 236.826 178.16 235.846 177.628C234.894 177.068 234.096 176.438 233.452 175.738C232.808 175.038 232.318 174.24 231.982 173.344C231.674 172.448 231.52 171.412 231.52 170.236C231.52 168.64 231.926 167.282 232.738 166.162C233.55 165.014 234.67 164.132 236.098 163.516C237.554 162.9 239.22 162.592 241.096 162.592C242.748 162.592 244.26 162.746 245.632 163.054C247.004 163.362 248.25 163.768 249.37 164.272L248.194 167.506C247.158 167.058 246.024 166.68 244.792 166.372C243.588 166.064 242.328 165.91 241.012 165.91C239.752 165.91 238.702 166.092 237.862 166.456C237.022 166.82 236.392 167.338 235.972 168.01C235.552 168.654 235.342 169.41 235.342 170.278C235.342 171.286 235.552 172.126 235.972 172.798C236.392 173.47 237.078 174.072 238.03 174.604C238.982 175.136 240.27 175.71 241.894 176.326C243.658 176.97 245.142 177.67 246.346 178.426C247.578 179.154 248.502 180.036 249.118 181.072C249.762 182.108 250.084 183.41 250.084 184.978ZM289.011 177.964C289.011 180.288 288.717 182.402 288.129 184.306C287.541 186.182 286.659 187.806 285.483 189.178C284.335 190.55 282.893 191.6 281.157 192.328C279.449 193.056 277.461 193.42 275.193 193.42C272.841 193.42 270.797 193.056 269.061 192.328C267.325 191.572 265.883 190.522 264.735 189.178C263.587 187.806 262.733 186.168 262.173 184.264C261.613 182.36 261.333 180.246 261.333 177.922C261.333 174.842 261.837 172.154 262.845 169.858C263.853 167.562 265.379 165.77 267.423 164.482C269.495 163.194 272.099 162.55 275.235 162.55C278.231 162.55 280.751 163.194 282.795 164.482C284.839 165.742 286.379 167.534 287.415 169.858C288.479 172.154 289.011 174.856 289.011 177.964ZM265.323 177.964C265.323 180.484 265.673 182.654 266.373 184.474C267.073 186.294 268.151 187.694 269.607 188.674C271.091 189.654 272.953 190.144 275.193 190.144C277.461 190.144 279.309 189.654 280.737 188.674C282.193 187.694 283.271 186.294 283.971 184.474C284.671 182.654 285.021 180.484 285.021 177.964C285.021 174.184 284.237 171.23 282.669 169.102C281.101 166.946 278.623 165.868 275.235 165.868C272.967 165.868 271.091 166.358 269.607 167.338C268.151 168.29 267.073 169.676 266.373 171.496C265.673 173.288 265.323 175.444 265.323 177.964ZM306.157 193H302.377V163.012H319.135V166.33H306.157V176.956H318.337V180.274H306.157V193ZM340.369 193H336.589V166.33H327.223V163.012H349.693V166.33H340.369V193ZM395.374 163.012L387.394 193H383.572L377.734 173.344C377.566 172.756 377.398 172.154 377.23 171.538C377.062 170.922 376.908 170.334 376.768 169.774C376.628 169.214 376.502 168.738 376.39 168.346C376.306 167.926 376.25 167.618 376.222 167.422C376.194 167.618 376.138 167.926 376.054 168.346C375.998 168.738 375.9 169.214 375.76 169.774C375.62 170.334 375.466 170.936 375.298 171.58C375.158 172.196 374.99 172.826 374.794 173.47L369.124 193H365.302L357.364 163.012H361.312L365.974 181.324C366.142 181.968 366.296 182.612 366.436 183.256C366.576 183.872 366.702 184.488 366.814 185.104C366.954 185.692 367.066 186.266 367.15 186.826C367.234 187.386 367.318 187.932 367.402 188.464C367.486 187.904 367.57 187.33 367.654 186.742C367.766 186.154 367.892 185.552 368.032 184.936C368.172 184.292 368.326 183.648 368.494 183.004C368.662 182.36 368.83 181.73 368.998 181.114L374.29 163.012H378.196L383.698 181.24C383.894 181.884 384.076 182.542 384.244 183.214C384.412 183.858 384.566 184.488 384.706 185.104C384.846 185.72 384.958 186.322 385.042 186.91C385.154 187.47 385.252 187.988 385.336 188.464C385.42 187.764 385.532 187.036 385.672 186.28C385.812 185.496 385.98 184.684 386.176 183.844C386.372 183.004 386.582 182.15 386.806 181.282L391.426 163.012H395.374ZM423.836 193L420.224 183.718H408.338L404.768 193H400.946L412.664 162.886H416.066L427.742 193H423.836ZM415.73 171.286C415.646 171.062 415.506 170.656 415.31 170.068C415.114 169.48 414.918 168.878 414.722 168.262C414.554 167.618 414.414 167.128 414.302 166.792C414.162 167.352 414.008 167.926 413.84 168.514C413.7 169.074 413.546 169.592 413.378 170.068C413.238 170.544 413.112 170.95 413 171.286L409.598 180.358H419.09L415.73 171.286ZM446.838 163.012C449.33 163.012 451.374 163.334 452.97 163.978C454.594 164.594 455.798 165.532 456.582 166.792C457.366 168.052 457.758 169.634 457.758 171.538C457.758 173.134 457.464 174.464 456.876 175.528C456.288 176.592 455.532 177.446 454.608 178.09C453.712 178.706 452.76 179.196 451.752 179.56L459.984 193H455.574L448.308 180.61H442.344V193H438.564V163.012H446.838ZM446.628 166.288H442.344V177.418H446.838C448.462 177.418 449.792 177.208 450.828 176.788C451.864 176.34 452.62 175.696 453.096 174.856C453.6 174.016 453.852 172.966 453.852 171.706C453.852 170.39 453.586 169.34 453.054 168.556C452.55 167.772 451.766 167.198 450.702 166.834C449.638 166.47 448.28 166.288 446.628 166.288ZM488.169 193H471.411V163.012H488.169V166.33H475.191V175.696H487.413V178.972H475.191V189.682H488.169V193ZM543.123 177.712C543.123 181.072 542.493 183.886 541.233 186.154C540.001 188.422 538.223 190.13 535.899 191.278C533.575 192.426 530.761 193 527.457 193H519.099V163.012H528.339C531.363 163.012 533.981 163.572 536.193 164.692C538.405 165.812 540.113 167.464 541.317 169.648C542.521 171.804 543.123 174.492 543.123 177.712ZM539.133 177.838C539.133 175.178 538.685 172.994 537.789 171.286C536.921 169.578 535.633 168.318 533.925 167.506C532.245 166.666 530.201 166.246 527.793 166.246H522.879V189.766H526.953C531.013 189.766 534.051 188.772 536.067 186.784C538.111 184.768 539.133 181.786 539.133 177.838ZM573.257 193H556.499V163.012H573.257V166.33H560.279V175.696H572.501V178.972H560.279V189.682H573.257V193ZM607.682 163.012L596.972 193H593.192L582.482 163.012H586.43L593.192 182.248C593.5 183.06 593.766 183.844 593.99 184.6C594.214 185.356 594.41 186.084 594.578 186.784C594.774 187.456 594.942 188.128 595.082 188.8C595.222 188.128 595.376 187.442 595.544 186.742C595.74 186.042 595.95 185.314 596.174 184.558C596.426 183.802 596.692 183.004 596.972 182.164L603.692 163.012H607.682ZM635.218 193H618.46V163.012H635.218V166.33H622.24V175.696H634.462V178.972H622.24V189.682H635.218V193ZM648.518 193V163.012H652.298V189.64H665.402V193H648.518ZM702.609 177.964C702.609 180.288 702.315 182.402 701.727 184.306C701.139 186.182 700.257 187.806 699.081 189.178C697.933 190.55 696.491 191.6 694.755 192.328C693.047 193.056 691.059 193.42 688.791 193.42C686.439 193.42 684.395 193.056 682.659 192.328C680.923 191.572 679.481 190.522 678.333 189.178C677.185 187.806 676.331 186.168 675.771 184.264C675.211 182.36 674.931 180.246 674.931 177.922C674.931 174.842 675.435 172.154 676.443 169.858C677.451 167.562 678.977 165.77 681.021 164.482C683.093 163.194 685.697 162.55 688.833 162.55C691.829 162.55 694.349 163.194 696.393 164.482C698.437 165.742 699.977 167.534 701.013 169.858C702.077 172.154 702.609 174.856 702.609 177.964ZM678.921 177.964C678.921 180.484 679.271 182.654 679.971 184.474C680.671 186.294 681.749 187.694 683.205 188.674C684.689 189.654 686.551 190.144 688.791 190.144C691.059 190.144 692.907 189.654 694.335 188.674C695.791 187.694 696.869 186.294 697.569 184.474C698.269 182.654 698.619 180.484 698.619 177.964C698.619 174.184 697.835 171.23 696.267 169.102C694.699 166.946 692.221 165.868 688.833 165.868C686.565 165.868 684.689 166.358 683.205 167.338C681.749 168.29 680.671 169.676 679.971 171.496C679.271 173.288 678.921 175.444 678.921 177.964ZM723.914 163.012C727.834 163.012 730.69 163.782 732.482 165.322C734.274 166.862 735.17 169.032 735.17 171.832C735.17 173.064 734.96 174.254 734.54 175.402C734.148 176.522 733.49 177.53 732.566 178.426C731.642 179.322 730.41 180.036 728.87 180.568C727.33 181.072 725.44 181.324 723.2 181.324H719.756V193H715.976V163.012H723.914ZM723.578 166.246H719.756V178.09H722.78C724.684 178.09 726.266 177.894 727.526 177.502C728.786 177.082 729.724 176.424 730.34 175.528C730.956 174.632 731.264 173.456 731.264 172C731.264 170.068 730.648 168.626 729.416 167.674C728.184 166.722 726.238 166.246 723.578 166.246ZM764.883 193H748.125V163.012H764.883V166.33H751.905V175.696H764.127V178.972H751.905V189.682H764.883V193ZM786.457 163.012C788.949 163.012 790.993 163.334 792.589 163.978C794.213 164.594 795.417 165.532 796.201 166.792C796.985 168.052 797.377 169.634 797.377 171.538C797.377 173.134 797.083 174.464 796.495 175.528C795.907 176.592 795.151 177.446 794.227 178.09C793.331 178.706 792.379 179.196 791.371 179.56L799.603 193H795.193L787.927 180.61H781.963V193H778.183V163.012H786.457ZM786.247 166.288H781.963V177.418H786.457C788.081 177.418 789.411 177.208 790.447 176.788C791.483 176.34 792.239 175.696 792.715 174.856C793.219 174.016 793.471 172.966 793.471 171.706C793.471 170.39 793.205 169.34 792.673 168.556C792.169 167.772 791.385 167.198 790.321 166.834C789.257 166.47 787.899 166.288 786.247 166.288Z" fill="#141C3A"/>
</svg>
