<svg width="295" height="311" viewBox="0 0 295 311" fill="none" xmlns="http://www.w3.org/2000/svg">
<circle cx="147" cy="109" r="100" fill="white" stroke="#2F4FFF" stroke-width="6"/>
<mask id="mask0_1_56" style="mask-type:alpha" maskUnits="userSpaceOnUse" x="44" y="0" width="206" height="206">
<circle cx="147" cy="103" r="100" fill="white" stroke="#2F4FFF" stroke-width="6"/>
</mask>
<g mask="url(#mask0_1_56)">
<path d="M152.484 51.1358L190.029 116.727C192.319 120.727 189.431 125.708 184.822 125.708H109.731C105.123 125.708 102.235 120.727 104.524 116.727L142.07 51.1358C144.374 47.1101 150.18 47.1101 152.484 51.1358Z" fill="white" stroke="#2F4FFF" stroke-width="6"/>
<path d="M152.125 55.1341L156.381 60.9702C159.272 64.9352 156.44 70.5056 151.533 70.5056H143.021C138.113 70.5056 135.281 64.9352 138.173 60.9702L142.429 55.1341C144.826 51.848 149.728 51.848 152.125 55.1341Z" fill="#2F4FFF" stroke="#2F4FFF" stroke-width="6"/>
<rect x="93.226" y="117.181" width="36.2599" height="102.819" rx="18.1299" fill="white" stroke="#2F4FFF" stroke-width="6"/>
<rect x="129.147" y="117.181" width="36.2599" height="102.819" rx="18.1299" fill="white" stroke="#2F4FFF" stroke-width="6"/>
<rect x="165.068" y="117.181" width="36.2599" height="102.819" rx="18.1299" fill="white" stroke="#2F4FFF" stroke-width="6"/>
</g>
<path d="M22.043 265.015C22.043 265.771 22.1309 266.386 22.3066 266.86C22.5 267.317 22.7725 267.678 23.124 267.941C23.4756 268.205 23.915 268.39 24.4424 268.495C24.9873 268.583 25.6201 268.627 26.3408 268.627C27.501 268.627 28.5469 268.513 29.4785 268.284C30.4102 268.038 31.2275 267.774 31.9307 267.493C32.6338 267.194 33.2227 266.922 33.6973 266.676C34.1895 266.43 34.5674 266.307 34.8311 266.307C35.165 266.307 35.4287 266.412 35.6221 266.623C35.8154 266.834 35.9121 267.142 35.9121 267.546C35.9121 268.249 35.8418 268.759 35.7012 269.075C35.5605 269.374 35.2705 269.603 34.8311 269.761C33.2314 270.323 31.4297 270.736 29.4258 271C27.4219 271.281 25.1543 271.422 22.623 271.422C20.7422 271.422 19.2041 271.334 18.0088 271.158C16.8135 271 15.873 270.71 15.1875 270.288C14.502 269.866 14.0273 269.295 13.7637 268.574C13.5176 267.836 13.3945 266.896 13.3945 265.753V235.8C13.3945 235.413 13.3506 235.105 13.2627 234.877C13.1748 234.648 13.0518 234.473 12.8936 234.35C12.7354 234.209 12.542 234.121 12.3135 234.086C12.1025 234.033 11.8652 234.007 11.6016 234.007C11.2148 234.007 10.7314 234.068 10.1514 234.191C9.58887 234.314 8.99121 234.499 8.3584 234.745C7.72559 234.991 7.08398 235.299 6.43359 235.668C5.80078 236.02 5.22949 236.424 4.71973 236.881C4.22754 237.338 3.82324 237.848 3.50684 238.41C3.19043 238.973 3.03223 239.579 3.03223 240.229C3.03223 240.792 3.10254 241.24 3.24316 241.574C3.40137 241.908 3.57715 242.163 3.77051 242.339C3.96387 242.497 4.15723 242.603 4.35059 242.655C4.56152 242.69 4.71094 242.708 4.79883 242.708C5.23828 242.708 5.59863 242.638 5.87988 242.497C6.16113 242.339 6.41602 242.181 6.64453 242.022C6.87305 241.847 7.08398 241.688 7.27734 241.548C7.48828 241.39 7.72559 241.311 7.98926 241.311C8.2002 241.311 8.41992 241.363 8.64844 241.469C8.89453 241.557 9.11426 241.706 9.30762 241.917C9.51855 242.128 9.69434 242.409 9.83496 242.761C9.97559 243.095 10.0459 243.508 10.0459 244C10.0459 244.703 9.90527 245.31 9.62402 245.819C9.36035 246.329 9.00879 246.76 8.56934 247.111C8.14746 247.445 7.65527 247.7 7.09277 247.876C6.54785 248.034 6.00293 248.113 5.45801 248.113C4.61426 248.113 3.84961 247.973 3.16406 247.691C2.49609 247.393 1.9248 246.988 1.4502 246.479C0.975586 245.969 0.615234 245.371 0.369141 244.686C0.123047 244 0 243.271 0 242.497C0 241.284 0.219727 240.177 0.65918 239.175C1.09863 238.155 1.69629 237.241 2.45215 236.433C3.22559 235.624 4.12207 234.921 5.1416 234.323C6.17871 233.708 7.29492 233.198 8.49023 232.794C9.68555 232.39 10.9336 232.091 12.2344 231.897C13.5352 231.687 14.8359 231.581 16.1367 231.581C17.5781 231.581 18.6943 231.722 19.4854 232.003C20.2939 232.267 20.8828 232.592 21.252 232.979C21.6387 233.365 21.8672 233.77 21.9375 234.191C22.0078 234.613 22.043 234.965 22.043 235.246V265.015ZM51.0732 257.342C51.0732 256.902 50.9326 256.568 50.6514 256.34C50.3701 256.111 50.0098 255.997 49.5703 255.997C48.9551 255.997 48.3662 256.138 47.8037 256.419C47.2588 256.7 46.7754 257.113 46.3535 257.658C45.9316 258.203 45.5977 258.88 45.3516 259.688C45.1055 260.479 44.9824 261.402 44.9824 262.457C44.9824 263.477 45.0527 264.32 45.1934 264.988C45.3516 265.656 45.5537 266.192 45.7998 266.597C46.0635 266.983 46.3623 267.256 46.6963 267.414C47.0303 267.572 47.3818 267.651 47.751 267.651C48.208 267.651 48.6387 267.537 49.043 267.309C49.4473 267.062 49.7988 266.755 50.0977 266.386C50.3965 266.017 50.6338 265.604 50.8096 265.146C50.9854 264.689 51.0732 264.232 51.0732 263.775V257.342ZM46.8809 245.793C46.2832 245.793 45.7295 245.863 45.2197 246.004C44.71 246.145 44.2705 246.32 43.9014 246.531C43.5322 246.742 43.2422 246.979 43.0312 247.243C42.8203 247.489 42.7148 247.727 42.7148 247.955C42.7148 248.219 42.8467 248.412 43.1104 248.535C43.3916 248.641 43.6992 248.772 44.0332 248.931C44.3672 249.071 44.666 249.282 44.9297 249.563C45.2109 249.827 45.3516 250.24 45.3516 250.803C45.3516 251.172 45.2725 251.515 45.1143 251.831C44.9736 252.13 44.7715 252.402 44.5078 252.648C44.2617 252.877 43.9629 253.062 43.6113 253.202C43.2773 253.325 42.9258 253.387 42.5566 253.387C41.5723 253.387 40.7725 253.053 40.1572 252.385C39.5596 251.717 39.2607 250.829 39.2607 249.722C39.2607 248.649 39.542 247.735 40.1045 246.979C40.667 246.206 41.3965 245.573 42.293 245.081C43.207 244.589 44.2354 244.229 45.3779 244C46.5205 243.754 47.6631 243.631 48.8057 243.631C50.1768 243.631 51.4863 243.78 52.7344 244.079C53.9824 244.378 55.0811 244.853 56.0303 245.503C56.9971 246.153 57.7617 246.979 58.3242 247.981C58.9043 248.983 59.1943 250.196 59.1943 251.62V266.518C59.1943 266.676 59.2031 266.852 59.2207 267.045C59.2383 267.238 59.2822 267.414 59.3525 267.572C59.4229 267.73 59.5283 267.862 59.6689 267.968C59.8096 268.073 60.0117 268.126 60.2754 268.126C60.5918 268.126 60.8818 268.012 61.1455 267.783C61.4268 267.537 61.6729 267.291 61.8838 267.045L62.543 267.599C62.2793 267.968 61.9629 268.372 61.5938 268.812C61.2246 269.251 60.7764 269.664 60.249 270.051C59.7217 270.438 59.1064 270.763 58.4033 271.026C57.7002 271.29 56.9004 271.422 56.0039 271.422C54.8965 271.422 53.9121 271.097 53.0508 270.446C52.1895 269.778 51.627 268.759 51.3633 267.388C50.8008 268.144 50.2119 268.776 49.5967 269.286C48.999 269.796 48.3838 270.209 47.751 270.525C47.1182 270.842 46.4766 271.07 45.8262 271.211C45.1934 271.352 44.5518 271.422 43.9014 271.422C43.0576 271.422 42.2402 271.29 41.4492 271.026C40.6582 270.763 39.9463 270.35 39.3135 269.787C38.6982 269.207 38.1973 268.46 37.8105 267.546C37.4414 266.632 37.2568 265.516 37.2568 264.197C37.2568 262.598 37.5732 261.288 38.2061 260.269C38.8389 259.249 39.665 258.396 40.6846 257.711C41.7217 257.008 42.8906 256.41 44.1914 255.918C45.5098 255.426 46.8545 254.907 48.2256 254.362C49.2451 253.958 49.9834 253.36 50.4404 252.569C50.915 251.761 51.1523 250.935 51.1523 250.091C51.1523 248.79 50.7656 247.753 49.9922 246.979C49.2363 246.188 48.1992 245.793 46.8809 245.793ZM74.25 268.68C74.25 268.908 74.2061 269.181 74.1182 269.497C74.0479 269.813 73.8633 270.112 73.5645 270.394C73.2832 270.675 72.8613 270.912 72.2988 271.105C71.7539 271.316 71.0156 271.422 70.084 271.422C69.1523 271.422 68.4229 271.308 67.8955 271.079C67.3682 270.868 66.9727 270.613 66.709 270.314C66.4629 270.016 66.3047 269.708 66.2344 269.392C66.1816 269.075 66.1553 268.82 66.1553 268.627V234.613C66.1553 234.104 66.0322 233.664 65.7861 233.295C65.5576 232.908 65.1621 232.715 64.5996 232.715C64.3008 232.715 64.0371 232.768 63.8086 232.873C63.5977 232.961 63.3691 233.102 63.123 233.295L62.5957 232.662C63 232.328 63.4482 232.003 63.9404 231.687C64.4326 231.353 64.9688 231.062 65.5488 230.816C66.1465 230.57 66.7793 230.368 67.4473 230.21C68.1152 230.052 68.8184 229.973 69.5566 229.973C70.6992 229.973 71.5869 230.131 72.2197 230.447C72.8525 230.746 73.3184 231.124 73.6172 231.581C73.916 232.021 74.0918 232.495 74.1445 233.005C74.2148 233.497 74.25 233.937 74.25 234.323V268.68ZM112.008 266.307C112.008 266.711 112.043 267.098 112.113 267.467C112.201 267.818 112.359 268.126 112.588 268.39C112.834 268.653 113.159 268.864 113.563 269.022C113.985 269.181 114.53 269.26 115.198 269.26C116.165 269.26 117.053 268.987 117.861 268.442C118.67 267.88 119.364 267.168 119.944 266.307C120.524 265.428 120.973 264.452 121.289 263.38C121.605 262.29 121.764 261.209 121.764 260.137C121.764 258.537 121.544 257.131 121.104 255.918C120.683 254.688 120.085 253.65 119.312 252.807C118.538 251.963 117.624 251.312 116.569 250.855C115.515 250.381 114.372 250.108 113.142 250.038L113.669 248.693C114.442 248.729 115.181 248.623 115.884 248.377C116.587 248.131 117.202 247.7 117.729 247.085C118.274 246.47 118.705 245.644 119.021 244.606C119.338 243.552 119.496 242.233 119.496 240.651C119.496 239.579 119.364 238.612 119.101 237.751C118.837 236.89 118.485 236.169 118.046 235.589C117.624 234.991 117.123 234.534 116.543 234.218C115.98 233.901 115.4 233.743 114.803 233.743C114.434 233.743 114.073 233.787 113.722 233.875C113.388 233.963 113.089 234.112 112.825 234.323C112.579 234.534 112.377 234.815 112.219 235.167C112.078 235.501 112.008 235.923 112.008 236.433V266.307ZM112.535 231.581C117.633 231.581 121.377 232.381 123.768 233.98C126.176 235.562 127.38 237.874 127.38 240.915C127.38 241.671 127.292 242.365 127.116 242.998C126.958 243.631 126.747 244.211 126.483 244.738C126.22 245.248 125.921 245.705 125.587 246.109C125.253 246.514 124.91 246.865 124.559 247.164C123.732 247.885 122.801 248.447 121.764 248.852V249.247C123.398 249.44 124.866 249.933 126.167 250.724C126.712 251.058 127.248 251.479 127.775 251.989C128.303 252.481 128.769 253.088 129.173 253.809C129.595 254.512 129.929 255.338 130.175 256.287C130.438 257.219 130.57 258.291 130.57 259.504C130.57 261.35 130.236 263.011 129.568 264.487C128.9 265.964 127.907 267.221 126.589 268.258C125.271 269.277 123.627 270.06 121.658 270.604C119.689 271.149 117.404 271.422 114.803 271.422C112.395 271.422 110.435 271.272 108.923 270.974C107.411 270.675 106.233 270.244 105.39 269.682C104.546 269.102 103.966 268.407 103.649 267.599C103.351 266.79 103.201 265.876 103.201 264.856V236.011C103.201 235.044 102.533 234.561 101.197 234.561C100.23 234.561 99.2461 234.71 98.2441 235.009C97.2598 235.29 96.3633 235.686 95.5547 236.195C94.7637 236.688 94.1133 237.285 93.6035 237.988C93.0938 238.674 92.8389 239.421 92.8389 240.229C92.8389 240.792 92.9092 241.24 93.0498 241.574C93.208 241.908 93.3838 242.163 93.5771 242.339C93.7705 242.497 93.9639 242.603 94.1572 242.655C94.3682 242.69 94.5176 242.708 94.6055 242.708C95.0449 242.708 95.4053 242.638 95.6865 242.497C95.9678 242.339 96.2227 242.181 96.4512 242.022C96.6797 241.847 96.8906 241.688 97.084 241.548C97.2949 241.39 97.5322 241.311 97.7959 241.311C98.0068 241.311 98.2266 241.363 98.4551 241.469C98.7012 241.557 98.9209 241.706 99.1143 241.917C99.3252 242.128 99.501 242.409 99.6416 242.761C99.7822 243.095 99.8525 243.508 99.8525 244C99.8525 244.703 99.7119 245.31 99.4307 245.819C99.167 246.329 98.8154 246.76 98.376 247.111C97.9541 247.445 97.4619 247.7 96.8994 247.876C96.3545 248.034 95.8096 248.113 95.2646 248.113C94.4209 248.113 93.6562 247.973 92.9707 247.691C92.3027 247.393 91.7314 246.988 91.2568 246.479C90.7822 245.969 90.4219 245.371 90.1758 244.686C89.9297 244 89.8066 243.271 89.8066 242.497C89.8066 241.038 90.0791 239.755 90.624 238.647C91.1689 237.522 91.9336 236.556 92.918 235.747C93.9199 234.938 95.1152 234.271 96.5039 233.743C97.8926 233.198 99.4307 232.768 101.118 232.451C102.806 232.135 104.607 231.915 106.523 231.792C108.457 231.651 110.461 231.581 112.535 231.581ZM147.366 257.342C147.366 256.902 147.226 256.568 146.944 256.34C146.663 256.111 146.303 255.997 145.863 255.997C145.248 255.997 144.659 256.138 144.097 256.419C143.552 256.7 143.068 257.113 142.646 257.658C142.225 258.203 141.891 258.88 141.645 259.688C141.398 260.479 141.275 261.402 141.275 262.457C141.275 263.477 141.346 264.32 141.486 264.988C141.645 265.656 141.847 266.192 142.093 266.597C142.356 266.983 142.655 267.256 142.989 267.414C143.323 267.572 143.675 267.651 144.044 267.651C144.501 267.651 144.932 267.537 145.336 267.309C145.74 267.062 146.092 266.755 146.391 266.386C146.689 266.017 146.927 265.604 147.103 265.146C147.278 264.689 147.366 264.232 147.366 263.775V257.342ZM143.174 245.793C142.576 245.793 142.022 245.863 141.513 246.004C141.003 246.145 140.563 246.32 140.194 246.531C139.825 246.742 139.535 246.979 139.324 247.243C139.113 247.489 139.008 247.727 139.008 247.955C139.008 248.219 139.14 248.412 139.403 248.535C139.685 248.641 139.992 248.772 140.326 248.931C140.66 249.071 140.959 249.282 141.223 249.563C141.504 249.827 141.645 250.24 141.645 250.803C141.645 251.172 141.565 251.515 141.407 251.831C141.267 252.13 141.064 252.402 140.801 252.648C140.555 252.877 140.256 253.062 139.904 253.202C139.57 253.325 139.219 253.387 138.85 253.387C137.865 253.387 137.065 253.053 136.45 252.385C135.853 251.717 135.554 250.829 135.554 249.722C135.554 248.649 135.835 247.735 136.397 246.979C136.96 246.206 137.689 245.573 138.586 245.081C139.5 244.589 140.528 244.229 141.671 244C142.813 243.754 143.956 243.631 145.099 243.631C146.47 243.631 147.779 243.78 149.027 244.079C150.275 244.378 151.374 244.853 152.323 245.503C153.29 246.153 154.055 246.979 154.617 247.981C155.197 248.983 155.487 250.196 155.487 251.62V266.518C155.487 266.676 155.496 266.852 155.514 267.045C155.531 267.238 155.575 267.414 155.646 267.572C155.716 267.73 155.821 267.862 155.962 267.968C156.103 268.073 156.305 268.126 156.568 268.126C156.885 268.126 157.175 268.012 157.438 267.783C157.72 267.537 157.966 267.291 158.177 267.045L158.836 267.599C158.572 267.968 158.256 268.372 157.887 268.812C157.518 269.251 157.069 269.664 156.542 270.051C156.015 270.438 155.399 270.763 154.696 271.026C153.993 271.29 153.193 271.422 152.297 271.422C151.189 271.422 150.205 271.097 149.344 270.446C148.482 269.778 147.92 268.759 147.656 267.388C147.094 268.144 146.505 268.776 145.89 269.286C145.292 269.796 144.677 270.209 144.044 270.525C143.411 270.842 142.77 271.07 142.119 271.211C141.486 271.352 140.845 271.422 140.194 271.422C139.351 271.422 138.533 271.29 137.742 271.026C136.951 270.763 136.239 270.35 135.606 269.787C134.991 269.207 134.49 268.46 134.104 267.546C133.734 266.632 133.55 265.516 133.55 264.197C133.55 262.598 133.866 261.288 134.499 260.269C135.132 259.249 135.958 258.396 136.978 257.711C138.015 257.008 139.184 256.41 140.484 255.918C141.803 255.426 143.147 254.907 144.519 254.362C145.538 253.958 146.276 253.36 146.733 252.569C147.208 251.761 147.445 250.935 147.445 250.091C147.445 248.79 147.059 247.753 146.285 246.979C145.529 246.188 144.492 245.793 143.174 245.793ZM170.543 248.641C171.193 247.709 171.932 246.874 172.758 246.136C173.092 245.819 173.461 245.512 173.865 245.213C174.287 244.914 174.727 244.65 175.184 244.422C175.658 244.176 176.15 243.982 176.66 243.842C177.188 243.701 177.724 243.631 178.269 243.631C179.446 243.631 180.501 243.859 181.433 244.316C182.364 244.773 183.146 245.538 183.779 246.61C184.412 247.683 184.896 249.106 185.229 250.882C185.563 252.64 185.73 254.828 185.73 257.447C185.73 259.996 185.502 262.211 185.045 264.092C184.588 265.973 183.99 267.572 183.252 268.891C182.514 270.209 181.679 271.281 180.747 272.107C179.815 272.951 178.875 273.61 177.926 274.085C176.977 274.56 176.062 274.885 175.184 275.061C174.305 275.254 173.549 275.359 172.916 275.377L172.652 274.296C173.443 274.103 174.146 273.742 174.762 273.215C175.377 272.688 175.896 271.826 176.317 270.631C176.739 269.418 177.056 267.792 177.267 265.753C177.495 263.714 177.609 261.086 177.609 257.869C177.609 255.654 177.504 253.888 177.293 252.569C177.1 251.233 176.836 250.223 176.502 249.537C176.186 248.834 175.816 248.377 175.395 248.166C174.99 247.938 174.577 247.823 174.155 247.823C173.646 247.823 173.197 247.964 172.811 248.245C172.424 248.509 172.081 248.816 171.782 249.168C171.501 249.52 171.255 249.871 171.044 250.223C170.851 250.574 170.684 250.838 170.543 251.014V268.627C170.543 268.855 170.508 269.137 170.438 269.471C170.367 269.787 170.191 270.095 169.91 270.394C169.646 270.675 169.242 270.912 168.697 271.105C168.17 271.316 167.44 271.422 166.509 271.422C165.577 271.422 164.839 271.308 164.294 271.079C163.749 270.868 163.336 270.613 163.055 270.314C162.791 270.016 162.624 269.708 162.554 269.392C162.483 269.075 162.448 268.82 162.448 268.627V234.613C162.448 234.104 162.325 233.664 162.079 233.295C161.851 232.908 161.455 232.715 160.893 232.715C160.594 232.715 160.33 232.768 160.102 232.873C159.891 232.961 159.662 233.102 159.416 233.295L158.889 232.662C159.293 232.328 159.741 232.003 160.233 231.687C160.726 231.353 161.262 231.062 161.842 230.816C162.439 230.57 163.072 230.368 163.74 230.21C164.408 230.052 165.111 229.973 165.85 229.973C166.992 229.973 167.88 230.131 168.513 230.447C169.146 230.746 169.611 231.124 169.91 231.581C170.209 232.021 170.385 232.495 170.438 233.005C170.508 233.497 170.543 233.937 170.543 234.323V248.641ZM203.054 257.342C203.054 256.902 202.913 256.568 202.632 256.34C202.351 256.111 201.99 255.997 201.551 255.997C200.936 255.997 200.347 256.138 199.784 256.419C199.239 256.7 198.756 257.113 198.334 257.658C197.912 258.203 197.578 258.88 197.332 259.688C197.086 260.479 196.963 261.402 196.963 262.457C196.963 263.477 197.033 264.32 197.174 264.988C197.332 265.656 197.534 266.192 197.78 266.597C198.044 266.983 198.343 267.256 198.677 267.414C199.011 267.572 199.362 267.651 199.731 267.651C200.188 267.651 200.619 267.537 201.023 267.309C201.428 267.062 201.779 266.755 202.078 266.386C202.377 266.017 202.614 265.604 202.79 265.146C202.966 264.689 203.054 264.232 203.054 263.775V257.342ZM198.861 245.793C198.264 245.793 197.71 245.863 197.2 246.004C196.69 246.145 196.251 246.32 195.882 246.531C195.513 246.742 195.223 246.979 195.012 247.243C194.801 247.489 194.695 247.727 194.695 247.955C194.695 248.219 194.827 248.412 195.091 248.535C195.372 248.641 195.68 248.772 196.014 248.931C196.348 249.071 196.646 249.282 196.91 249.563C197.191 249.827 197.332 250.24 197.332 250.803C197.332 251.172 197.253 251.515 197.095 251.831C196.954 252.13 196.752 252.402 196.488 252.648C196.242 252.877 195.943 253.062 195.592 253.202C195.258 253.325 194.906 253.387 194.537 253.387C193.553 253.387 192.753 253.053 192.138 252.385C191.54 251.717 191.241 250.829 191.241 249.722C191.241 248.649 191.522 247.735 192.085 246.979C192.647 246.206 193.377 245.573 194.273 245.081C195.188 244.589 196.216 244.229 197.358 244C198.501 243.754 199.644 243.631 200.786 243.631C202.157 243.631 203.467 243.78 204.715 244.079C205.963 244.378 207.062 244.853 208.011 245.503C208.978 246.153 209.742 246.979 210.305 247.981C210.885 248.983 211.175 250.196 211.175 251.62V266.518C211.175 266.676 211.184 266.852 211.201 267.045C211.219 267.238 211.263 267.414 211.333 267.572C211.403 267.73 211.509 267.862 211.649 267.968C211.79 268.073 211.992 268.126 212.256 268.126C212.572 268.126 212.862 268.012 213.126 267.783C213.407 267.537 213.653 267.291 213.864 267.045L214.523 267.599C214.26 267.968 213.943 268.372 213.574 268.812C213.205 269.251 212.757 269.664 212.229 270.051C211.702 270.438 211.087 270.763 210.384 271.026C209.681 271.29 208.881 271.422 207.984 271.422C206.877 271.422 205.893 271.097 205.031 270.446C204.17 269.778 203.607 268.759 203.344 267.388C202.781 268.144 202.192 268.776 201.577 269.286C200.979 269.796 200.364 270.209 199.731 270.525C199.099 270.842 198.457 271.07 197.807 271.211C197.174 271.352 196.532 271.422 195.882 271.422C195.038 271.422 194.221 271.29 193.43 271.026C192.639 270.763 191.927 270.35 191.294 269.787C190.679 269.207 190.178 268.46 189.791 267.546C189.422 266.632 189.237 265.516 189.237 264.197C189.237 262.598 189.554 261.288 190.187 260.269C190.819 259.249 191.646 258.396 192.665 257.711C193.702 257.008 194.871 256.41 196.172 255.918C197.49 255.426 198.835 254.907 200.206 254.362C201.226 253.958 201.964 253.36 202.421 252.569C202.896 251.761 203.133 250.935 203.133 250.091C203.133 248.79 202.746 247.753 201.973 246.979C201.217 246.188 200.18 245.793 198.861 245.793ZM232.717 256.683C232.717 256.489 232.717 256.103 232.717 255.522C232.717 254.925 232.699 254.248 232.664 253.492C232.629 252.719 232.567 251.901 232.479 251.04C232.392 250.179 232.251 249.379 232.058 248.641C231.636 248.096 231.161 247.612 230.634 247.19C230.124 246.751 229.465 246.531 228.656 246.531C227.285 246.531 226.274 247.428 225.624 249.221C224.991 251.014 224.675 253.791 224.675 257.553C224.675 259.205 224.745 260.717 224.886 262.088C225.044 263.459 225.272 264.637 225.571 265.621C225.888 266.605 226.283 267.37 226.758 267.915C227.25 268.46 227.83 268.732 228.498 268.732C231.311 268.732 232.717 264.716 232.717 256.683ZM232.4 245.081C232.066 243.323 231.601 241.688 231.003 240.177C230.405 238.647 229.685 237.329 228.841 236.222C228.015 235.114 227.065 234.244 225.993 233.611C224.938 232.979 223.796 232.662 222.565 232.662C221.862 232.662 221.221 232.75 220.641 232.926C220.078 233.102 219.586 233.312 219.164 233.559C218.742 233.787 218.391 234.016 218.109 234.244C217.846 234.455 217.652 234.613 217.529 234.719L216.844 233.796C217.266 233.251 217.775 232.741 218.373 232.267C218.988 231.792 219.656 231.388 220.377 231.054C221.098 230.72 221.854 230.456 222.645 230.263C223.453 230.069 224.253 229.973 225.044 229.973C227.646 229.973 229.931 230.544 231.899 231.687C233.868 232.812 235.512 234.411 236.83 236.485C238.148 238.56 239.142 241.064 239.81 244C240.478 246.936 240.812 250.196 240.812 253.782C240.812 256.683 240.513 259.231 239.915 261.429C239.335 263.626 238.5 265.472 237.41 266.966C236.32 268.442 234.993 269.559 233.429 270.314C231.882 271.053 230.133 271.422 228.182 271.422C226.828 271.422 225.448 271.185 224.042 270.71C222.653 270.218 221.388 269.427 220.245 268.337C219.12 267.247 218.197 265.823 217.477 264.065C216.756 262.29 216.396 260.119 216.396 257.553C216.396 255.338 216.703 253.369 217.318 251.646C217.951 249.924 218.795 248.474 219.85 247.296C220.904 246.101 222.126 245.195 223.515 244.58C224.903 243.947 226.371 243.631 227.918 243.631C228.516 243.631 229.052 243.684 229.526 243.789C230.001 243.877 230.414 243.991 230.766 244.132C231.117 244.272 231.425 244.431 231.688 244.606C231.952 244.765 232.189 244.923 232.4 245.081ZM268.919 266.412C268.919 266.57 268.928 266.746 268.945 266.939C268.963 267.115 269.007 267.291 269.077 267.467C269.147 267.625 269.253 267.757 269.394 267.862C269.534 267.968 269.736 268.021 270 268.021C270.334 268.021 270.633 267.906 270.896 267.678C271.16 267.432 271.406 267.186 271.635 266.939L272.268 267.493C272.004 267.862 271.67 268.275 271.266 268.732C270.879 269.172 270.404 269.594 269.842 269.998C269.279 270.402 268.638 270.736 267.917 271C267.196 271.281 266.379 271.422 265.465 271.422C264.691 271.422 264.015 271.316 263.435 271.105C262.872 270.912 262.389 270.648 261.984 270.314C261.598 269.963 261.308 269.559 261.114 269.102C260.921 268.627 260.824 268.126 260.824 267.599V266.412C259.945 267.361 259.022 268.196 258.056 268.917C257.634 269.233 257.186 269.541 256.711 269.84C256.236 270.139 255.744 270.411 255.234 270.657C254.725 270.886 254.197 271.07 253.652 271.211C253.107 271.352 252.562 271.422 252.018 271.422C250.963 271.422 250.058 271.237 249.302 270.868C248.563 270.481 247.966 269.98 247.509 269.365C247.052 268.75 246.718 268.056 246.507 267.282C246.296 266.509 246.19 265.735 246.19 264.962V248.641C246.19 248.482 246.182 248.315 246.164 248.14C246.146 247.946 246.103 247.771 246.032 247.612C245.962 247.437 245.856 247.296 245.716 247.19C245.575 247.085 245.373 247.032 245.109 247.032C244.793 247.032 244.494 247.155 244.213 247.401C243.949 247.63 243.712 247.867 243.501 248.113L242.842 247.56C243.105 247.19 243.431 246.786 243.817 246.347C244.222 245.89 244.705 245.459 245.268 245.055C245.83 244.65 246.472 244.316 247.192 244.053C247.931 243.771 248.748 243.631 249.645 243.631C250.418 243.631 251.095 243.736 251.675 243.947C252.255 244.141 252.738 244.413 253.125 244.765C253.512 245.099 253.802 245.503 253.995 245.978C254.188 246.435 254.285 246.927 254.285 247.454V265.067C254.285 265.313 254.32 265.568 254.391 265.832C254.479 266.078 254.593 266.307 254.733 266.518C254.892 266.729 255.085 266.904 255.313 267.045C255.542 267.168 255.814 267.229 256.131 267.229C256.641 267.229 257.15 267.098 257.66 266.834C258.17 266.57 258.636 266.263 259.058 265.911C259.479 265.542 259.84 265.182 260.139 264.83C260.455 264.479 260.684 264.215 260.824 264.039V248.641C260.824 248.482 260.815 248.315 260.798 248.14C260.78 247.946 260.736 247.771 260.666 247.612C260.596 247.437 260.49 247.296 260.35 247.19C260.209 247.085 260.007 247.032 259.743 247.032C259.427 247.032 259.128 247.155 258.847 247.401C258.583 247.63 258.346 247.867 258.135 248.113L257.476 247.56C257.739 247.19 258.064 246.786 258.451 246.347C258.855 245.89 259.339 245.459 259.901 245.055C260.464 244.65 261.105 244.316 261.826 244.053C262.564 243.771 263.382 243.631 264.278 243.631C265.052 243.631 265.729 243.736 266.309 243.947C266.889 244.141 267.372 244.413 267.759 244.765C268.146 245.099 268.436 245.503 268.629 245.978C268.822 246.435 268.919 246.927 268.919 247.454V266.412ZM284.291 249.194C284.959 248.175 285.671 247.252 286.427 246.426C286.743 246.074 287.086 245.731 287.455 245.397C287.824 245.063 288.202 244.765 288.589 244.501C288.993 244.237 289.406 244.026 289.828 243.868C290.25 243.71 290.672 243.631 291.094 243.631C291.99 243.631 292.693 243.903 293.203 244.448C293.713 244.976 293.968 245.723 293.968 246.689C293.968 247.287 293.915 247.867 293.81 248.43C293.722 248.975 293.537 249.643 293.256 250.434H292.518C292.412 249.889 292.166 249.44 291.779 249.089C291.393 248.72 290.83 248.535 290.092 248.535C289.547 248.535 289.011 248.641 288.483 248.852C287.956 249.045 287.438 249.291 286.928 249.59C286.436 249.889 285.961 250.214 285.504 250.565C285.064 250.917 284.66 251.251 284.291 251.567V268.68C284.291 268.908 284.256 269.181 284.186 269.497C284.115 269.813 283.939 270.112 283.658 270.394C283.395 270.675 282.99 270.912 282.445 271.105C281.918 271.316 281.188 271.422 280.257 271.422C279.325 271.422 278.587 271.308 278.042 271.079C277.515 270.868 277.11 270.613 276.829 270.314C276.548 270.016 276.372 269.708 276.302 269.392C276.231 269.075 276.196 268.82 276.196 268.627V248.271C276.196 247.762 276.073 247.322 275.827 246.953C275.599 246.566 275.203 246.373 274.641 246.373C274.342 246.373 274.087 246.426 273.876 246.531C273.665 246.637 273.437 246.786 273.19 246.979L272.637 246.32C273.041 245.986 273.489 245.661 273.981 245.345C274.491 245.011 275.036 244.721 275.616 244.475C276.196 244.229 276.82 244.026 277.488 243.868C278.156 243.71 278.859 243.631 279.598 243.631C280.354 243.631 280.995 243.736 281.522 243.947C282.067 244.141 282.507 244.404 282.841 244.738C283.192 245.055 283.465 245.415 283.658 245.819C283.852 246.224 283.992 246.637 284.08 247.059C284.186 247.463 284.247 247.858 284.265 248.245C284.282 248.614 284.291 248.931 284.291 249.194Z" fill="#2F4FFF"/>
<path d="M14.542 300.989C14.542 301.885 14.325 302.648 13.891 303.278C13.457 303.894 12.834 304.37 12.022 304.706C11.224 305.042 10.279 305.21 9.187 305.21C8.627 305.21 8.088 305.182 7.57 305.126C7.066 305.07 6.604 304.993 6.184 304.895C5.764 304.783 5.393 304.65 5.071 304.496V302.69C5.575 302.914 6.198 303.117 6.94 303.299C7.696 303.481 8.473 303.572 9.271 303.572C10.013 303.572 10.636 303.474 11.14 303.278C11.644 303.082 12.022 302.802 12.274 302.438C12.526 302.074 12.652 301.647 12.652 301.157C12.652 300.667 12.547 300.254 12.337 299.918C12.127 299.582 11.763 299.274 11.245 298.994C10.741 298.7 10.034 298.392 9.124 298.07C8.48 297.832 7.913 297.58 7.423 297.314C6.947 297.034 6.548 296.719 6.226 296.369C5.904 296.019 5.659 295.62 5.491 295.172C5.337 294.724 5.26 294.206 5.26 293.618C5.26 292.82 5.463 292.141 5.869 291.581C6.275 291.007 6.835 290.566 7.549 290.258C8.277 289.95 9.11 289.796 10.048 289.796C10.874 289.796 11.63 289.873 12.316 290.027C13.002 290.181 13.625 290.384 14.185 290.636L13.597 292.253C13.079 292.029 12.512 291.84 11.896 291.686C11.294 291.532 10.664 291.455 10.006 291.455C9.376 291.455 8.851 291.546 8.431 291.728C8.011 291.91 7.696 292.169 7.486 292.505C7.276 292.827 7.171 293.205 7.171 293.639C7.171 294.143 7.276 294.563 7.486 294.899C7.696 295.235 8.039 295.536 8.515 295.802C8.991 296.068 9.635 296.355 10.447 296.663C11.329 296.985 12.071 297.335 12.673 297.713C13.289 298.077 13.751 298.518 14.059 299.036C14.381 299.554 14.542 300.205 14.542 300.989ZM34.0054 297.482C34.0054 298.644 33.8584 299.701 33.5644 300.653C33.2704 301.591 32.8294 302.403 32.2414 303.089C31.6674 303.775 30.9464 304.3 30.0784 304.664C29.2244 305.028 28.2304 305.21 27.0964 305.21C25.9204 305.21 24.8984 305.028 24.0304 304.664C23.1624 304.286 22.4414 303.761 21.8674 303.089C21.2934 302.403 20.8664 301.584 20.5864 300.632C20.3064 299.68 20.1664 298.623 20.1664 297.461C20.1664 295.921 20.4184 294.577 20.9224 293.429C21.4264 292.281 22.1894 291.385 23.2114 290.741C24.2474 290.097 25.5494 289.775 27.1174 289.775C28.6154 289.775 29.8754 290.097 30.8974 290.741C31.9194 291.371 32.6894 292.267 33.2074 293.429C33.7394 294.577 34.0054 295.928 34.0054 297.482ZM22.1614 297.482C22.1614 298.742 22.3364 299.827 22.6864 300.737C23.0364 301.647 23.5754 302.347 24.3034 302.837C25.0454 303.327 25.9764 303.572 27.0964 303.572C28.2304 303.572 29.1544 303.327 29.8684 302.837C30.5964 302.347 31.1354 301.647 31.4854 300.737C31.8354 299.827 32.0104 298.742 32.0104 297.482C32.0104 295.592 31.6184 294.115 30.8344 293.051C30.0504 291.973 28.8114 291.434 27.1174 291.434C25.9834 291.434 25.0454 291.679 24.3034 292.169C23.5754 292.645 23.0364 293.338 22.6864 294.248C22.3364 295.144 22.1614 296.222 22.1614 297.482ZM42.5786 305H40.6886V290.006H49.0676V291.665H42.5786V296.978H48.6686V298.637H42.5786V305ZM59.6843 305H57.7943V291.665H53.1113V290.006H64.3463V291.665H59.6843V305ZM87.1872 290.006L83.1972 305H81.2862L78.3672 295.172C78.2832 294.878 78.1992 294.577 78.1152 294.269C78.0312 293.961 77.9542 293.667 77.8842 293.387C77.8142 293.107 77.7512 292.869 77.6952 292.673C77.6532 292.463 77.6252 292.309 77.6112 292.211C77.5972 292.309 77.5692 292.463 77.5272 292.673C77.4992 292.869 77.4502 293.107 77.3802 293.387C77.3102 293.667 77.2332 293.968 77.1492 294.29C77.0792 294.598 76.9952 294.913 76.8972 295.235L74.0622 305H72.1512L68.1822 290.006H70.1562L72.4872 299.162C72.5712 299.484 72.6482 299.806 72.7182 300.128C72.7882 300.436 72.8512 300.744 72.9072 301.052C72.9772 301.346 73.0332 301.633 73.0752 301.913C73.1172 302.193 73.1592 302.466 73.2012 302.732C73.2432 302.452 73.2852 302.165 73.3272 301.871C73.3832 301.577 73.4462 301.276 73.5162 300.968C73.5862 300.646 73.6632 300.324 73.7472 300.002C73.8312 299.68 73.9152 299.365 73.9992 299.057L76.6452 290.006H78.5982L81.3492 299.12C81.4472 299.442 81.5382 299.771 81.6222 300.107C81.7062 300.429 81.7832 300.744 81.8532 301.052C81.9232 301.36 81.9792 301.661 82.0212 301.955C82.0772 302.235 82.1262 302.494 82.1682 302.732C82.2102 302.382 82.2662 302.018 82.3362 301.64C82.4062 301.248 82.4902 300.842 82.5882 300.422C82.6862 300.002 82.7912 299.575 82.9032 299.141L85.2132 290.006H87.1872ZM101.418 305L99.6119 300.359H93.6689L91.8839 305H89.9729L95.8319 289.943H97.5329L103.371 305H101.418ZM97.3649 294.143C97.3229 294.031 97.2529 293.828 97.1549 293.534C97.0569 293.24 96.9589 292.939 96.8609 292.631C96.7769 292.309 96.7069 292.064 96.6509 291.896C96.5809 292.176 96.5039 292.463 96.4199 292.757C96.3499 293.037 96.2729 293.296 96.1889 293.534C96.1189 293.772 96.0559 293.975 95.9999 294.143L94.2989 298.679H99.0449L97.3649 294.143ZM112.919 290.006C114.165 290.006 115.187 290.167 115.985 290.489C116.797 290.797 117.399 291.266 117.791 291.896C118.183 292.526 118.379 293.317 118.379 294.269C118.379 295.067 118.232 295.732 117.938 296.264C117.644 296.796 117.266 297.223 116.804 297.545C116.356 297.853 115.88 298.098 115.376 298.28L119.492 305H117.287L113.654 298.805H110.672V305H108.782V290.006H112.919ZM112.814 291.644H110.672V297.209H112.919C113.731 297.209 114.396 297.104 114.914 296.894C115.432 296.67 115.81 296.348 116.048 295.928C116.3 295.508 116.426 294.983 116.426 294.353C116.426 293.695 116.293 293.17 116.027 292.778C115.775 292.386 115.383 292.099 114.851 291.917C114.319 291.735 113.64 291.644 112.814 291.644ZM133.584 305H125.205V290.006H133.584V291.665H127.095V296.348H133.206V297.986H127.095V303.341H133.584V305ZM161.061 297.356C161.061 299.036 160.746 300.443 160.116 301.577C159.5 302.711 158.611 303.565 157.449 304.139C156.287 304.713 154.88 305 153.228 305H149.049V290.006H153.669C155.181 290.006 156.49 290.286 157.596 290.846C158.702 291.406 159.556 292.232 160.158 293.324C160.76 294.402 161.061 295.746 161.061 297.356ZM159.066 297.419C159.066 296.089 158.842 294.997 158.394 294.143C157.96 293.289 157.316 292.659 156.462 292.253C155.622 291.833 154.6 291.623 153.396 291.623H150.939V303.383H152.976C155.006 303.383 156.525 302.886 157.533 301.892C158.555 300.884 159.066 299.393 159.066 297.419ZM176.128 305H167.749V290.006H176.128V291.665H169.639V296.348H175.75V297.986H169.639V303.341H176.128V305ZM193.341 290.006L187.986 305H186.096L180.741 290.006H182.715L186.096 299.624C186.25 300.03 186.383 300.422 186.495 300.8C186.607 301.178 186.705 301.542 186.789 301.892C186.887 302.228 186.971 302.564 187.041 302.9C187.111 302.564 187.188 302.221 187.272 301.871C187.37 301.521 187.475 301.157 187.587 300.779C187.713 300.401 187.846 300.002 187.986 299.582L191.346 290.006H193.341ZM207.109 305H198.73V290.006H207.109V291.665H200.62V296.348H206.731V297.986H200.62V303.341H207.109V305ZM213.759 305V290.006H215.649V303.32H222.201V305H213.759ZM240.805 297.482C240.805 298.644 240.658 299.701 240.364 300.653C240.07 301.591 239.629 302.403 239.041 303.089C238.467 303.775 237.746 304.3 236.878 304.664C236.024 305.028 235.03 305.21 233.896 305.21C232.72 305.21 231.698 305.028 230.83 304.664C229.962 304.286 229.241 303.761 228.667 303.089C228.093 302.403 227.666 301.584 227.386 300.632C227.106 299.68 226.966 298.623 226.966 297.461C226.966 295.921 227.218 294.577 227.722 293.429C228.226 292.281 228.989 291.385 230.011 290.741C231.047 290.097 232.349 289.775 233.917 289.775C235.415 289.775 236.675 290.097 237.697 290.741C238.719 291.371 239.489 292.267 240.007 293.429C240.539 294.577 240.805 295.928 240.805 297.482ZM228.961 297.482C228.961 298.742 229.136 299.827 229.486 300.737C229.836 301.647 230.375 302.347 231.103 302.837C231.845 303.327 232.776 303.572 233.896 303.572C235.03 303.572 235.954 303.327 236.668 302.837C237.396 302.347 237.935 301.647 238.285 300.737C238.635 299.827 238.81 298.742 238.81 297.482C238.81 295.592 238.418 294.115 237.634 293.051C236.85 291.973 235.611 291.434 233.917 291.434C232.783 291.434 231.845 291.679 231.103 292.169C230.375 292.645 229.836 293.338 229.486 294.248C229.136 295.144 228.961 296.222 228.961 297.482ZM251.457 290.006C253.417 290.006 254.845 290.391 255.741 291.161C256.637 291.931 257.085 293.016 257.085 294.416C257.085 295.032 256.98 295.627 256.77 296.201C256.574 296.761 256.245 297.265 255.783 297.713C255.321 298.161 254.705 298.518 253.935 298.784C253.165 299.036 252.22 299.162 251.1 299.162H249.378V305H247.488V290.006H251.457ZM251.289 291.623H249.378V297.545H250.89C251.842 297.545 252.633 297.447 253.263 297.251C253.893 297.041 254.362 296.712 254.67 296.264C254.978 295.816 255.132 295.228 255.132 294.5C255.132 293.534 254.824 292.813 254.208 292.337C253.592 291.861 252.619 291.623 251.289 291.623ZM271.942 305H263.563V290.006H271.942V291.665H265.453V296.348H271.564V297.986H265.453V303.341H271.942V305ZM282.729 290.006C283.975 290.006 284.997 290.167 285.795 290.489C286.607 290.797 287.209 291.266 287.601 291.896C287.993 292.526 288.189 293.317 288.189 294.269C288.189 295.067 288.042 295.732 287.748 296.264C287.454 296.796 287.076 297.223 286.614 297.545C286.166 297.853 285.69 298.098 285.186 298.28L289.302 305H287.097L283.464 298.805H280.482V305H278.592V290.006H282.729ZM282.624 291.644H280.482V297.209H282.729C283.541 297.209 284.206 297.104 284.724 296.894C285.242 296.67 285.62 296.348 285.858 295.928C286.11 295.508 286.236 294.983 286.236 294.353C286.236 293.695 286.103 293.17 285.837 292.778C285.585 292.386 285.193 292.099 284.661 291.917C284.129 291.735 283.45 291.644 282.624 291.644Z" fill="#141C3A"/>
</svg>
