<svg width="333" height="336" viewBox="0 0 333 336" fill="none" xmlns="http://www.w3.org/2000/svg">
<circle cx="167" cy="112" r="98.5" fill="#2F4FFF" stroke="white" stroke-width="9"/>
<mask id="mask0_38_5" style="mask-type:alpha" maskUnits="userSpaceOnUse" x="64" y="0" width="206" height="206">
<circle cx="167" cy="103" r="98.5" fill="white" stroke="#2F4FFF" stroke-width="9"/>
</mask>
<g mask="url(#mask0_38_5)">
<path d="M171.182 51.881L208.728 117.472C210.445 120.472 208.279 124.208 204.822 124.208H129.731C126.275 124.208 124.109 120.472 125.826 117.472L163.371 51.881C165.1 48.8617 169.454 48.8617 171.182 51.881Z" fill="#2F4FFF" stroke="white" stroke-width="9"/>
<path d="M170.913 56.018L175.169 61.8541C177.338 64.8278 175.214 69.0057 171.533 69.0057H163.021C159.34 69.0057 157.216 64.8278 159.385 61.8541L163.641 56.018C165.438 53.5534 169.115 53.5534 170.913 56.018Z" fill="white" stroke="white" stroke-width="9"/>
<rect x="115.5" y="118.681" width="33.2599" height="99.8192" rx="16.6299" fill="#2F4FFF" stroke="white" stroke-width="9"/>
<rect x="148.421" y="118.681" width="33.2599" height="99.8192" rx="16.6299" fill="#2F4FFF" stroke="white" stroke-width="9"/>
<rect x="185.342" y="118.681" width="33.2599" height="99.8192" rx="16.6299" fill="#2F4FFF" stroke="white" stroke-width="9"/>
</g>
<path d="M24.9004 274.239C24.9004 275.093 24.9997 275.788 25.1982 276.324C25.4167 276.84 25.7244 277.247 26.1216 277.545C26.5187 277.843 27.0151 278.051 27.6108 278.17C28.2264 278.27 28.9412 278.319 29.7554 278.319C31.0659 278.319 32.2474 278.19 33.2998 277.932C34.3522 277.654 35.2756 277.356 36.0698 277.039C36.8641 276.701 37.5293 276.393 38.0654 276.115C38.6214 275.837 39.0483 275.698 39.3462 275.698C39.7235 275.698 40.0213 275.817 40.2397 276.056C40.4582 276.294 40.5674 276.641 40.5674 277.098C40.5674 277.892 40.488 278.468 40.3291 278.826C40.1702 279.163 39.8426 279.421 39.3462 279.6C37.5392 280.236 35.5039 280.702 33.2402 281C30.9766 281.318 28.415 281.477 25.5557 281.477C23.431 281.477 21.6935 281.377 20.3433 281.179C18.993 281 17.9307 280.672 17.1562 280.196C16.3818 279.719 15.8457 279.074 15.5479 278.26C15.2699 277.426 15.1309 276.363 15.1309 275.073V241.237C15.1309 240.8 15.0812 240.452 14.9819 240.194C14.8826 239.936 14.7437 239.738 14.5649 239.599C14.3862 239.44 14.1678 239.34 13.9097 239.301C13.6714 239.241 13.4033 239.211 13.1055 239.211C12.6686 239.211 12.1226 239.281 11.4673 239.42C10.8319 239.559 10.1567 239.767 9.44189 240.045C8.72705 240.323 8.00228 240.671 7.26758 241.088C6.55273 241.485 5.90739 241.942 5.33154 242.458C4.77555 242.974 4.31885 243.55 3.96143 244.186C3.604 244.821 3.42529 245.506 3.42529 246.241C3.42529 246.876 3.50472 247.382 3.66357 247.76C3.84229 248.137 4.04085 248.425 4.25928 248.624C4.4777 248.802 4.69613 248.921 4.91455 248.981C5.15283 249.021 5.32161 249.041 5.4209 249.041C5.91732 249.041 6.32438 248.961 6.64209 248.802C6.9598 248.624 7.24772 248.445 7.50586 248.266C7.764 248.068 8.00228 247.889 8.2207 247.73C8.45898 247.551 8.72705 247.462 9.0249 247.462C9.26318 247.462 9.51139 247.521 9.76953 247.641C10.0475 247.74 10.2957 247.909 10.5142 248.147C10.7524 248.385 10.951 248.703 11.1099 249.1C11.2687 249.477 11.3481 249.944 11.3481 250.5C11.3481 251.294 11.1893 251.979 10.8716 252.555C10.5737 253.131 10.1766 253.618 9.68018 254.015C9.20361 254.392 8.64762 254.68 8.01221 254.878C7.39665 255.057 6.78109 255.146 6.16553 255.146C5.2124 255.146 4.34863 254.988 3.57422 254.67C2.81966 254.332 2.17432 253.876 1.63818 253.3C1.10205 252.724 0.694987 252.049 0.416992 251.274C0.138997 250.5 0 249.676 0 248.802C0 247.432 0.24821 246.181 0.744629 245.049C1.24105 243.898 1.91618 242.865 2.77002 241.952C3.64372 241.038 4.65641 240.244 5.80811 239.569C6.97965 238.874 8.24056 238.298 9.59082 237.841C10.9411 237.385 12.3509 237.047 13.8203 236.829C15.2897 236.59 16.7591 236.471 18.2285 236.471C19.8568 236.471 21.1177 236.63 22.0112 236.948C22.9246 237.246 23.5898 237.613 24.0068 238.05C24.4437 238.487 24.7018 238.943 24.7812 239.42C24.8607 239.896 24.9004 240.294 24.9004 240.611V274.239ZM57.6938 265.571C57.6938 265.075 57.535 264.698 57.2173 264.439C56.8996 264.181 56.4925 264.052 55.9961 264.052C55.3011 264.052 54.6359 264.211 54.0005 264.529C53.3849 264.847 52.8389 265.313 52.3623 265.929C51.8857 266.544 51.5085 267.309 51.2305 268.222C50.9525 269.116 50.8135 270.158 50.8135 271.35C50.8135 272.501 50.8929 273.454 51.0518 274.209C51.2305 274.964 51.4588 275.569 51.7368 276.026C52.0347 276.463 52.3722 276.771 52.7495 276.949C53.1268 277.128 53.5239 277.217 53.9409 277.217C54.4572 277.217 54.9437 277.088 55.4004 276.83C55.8571 276.552 56.2542 276.205 56.5918 275.788C56.9294 275.371 57.1974 274.904 57.396 274.388C57.5946 273.871 57.6938 273.355 57.6938 272.839V265.571ZM52.958 252.525C52.2829 252.525 51.6574 252.605 51.0815 252.764C50.5057 252.923 50.0093 253.121 49.5923 253.359C49.1753 253.598 48.8477 253.866 48.6094 254.164C48.3711 254.442 48.252 254.71 48.252 254.968C48.252 255.266 48.4009 255.484 48.6987 255.623C49.0164 255.742 49.3639 255.891 49.7412 256.07C50.1185 256.229 50.4561 256.467 50.7539 256.785C51.0716 257.083 51.2305 257.549 51.2305 258.185C51.2305 258.602 51.1411 258.989 50.9624 259.346C50.8035 259.684 50.5752 259.992 50.2773 260.27C49.9993 260.528 49.6618 260.736 49.2646 260.895C48.8874 261.034 48.4902 261.104 48.0732 261.104C46.9613 261.104 46.0578 260.726 45.3628 259.972C44.6877 259.217 44.3501 258.214 44.3501 256.963C44.3501 255.752 44.6678 254.72 45.3032 253.866C45.9386 252.992 46.7627 252.277 47.7754 251.721C48.8079 251.165 49.9696 250.758 51.2603 250.5C52.5509 250.222 53.8416 250.083 55.1323 250.083C56.6812 250.083 58.1605 250.252 59.5703 250.589C60.9801 250.927 62.2212 251.463 63.2935 252.198C64.3856 252.932 65.2493 253.866 65.8848 254.998C66.54 256.129 66.8677 257.5 66.8677 259.108V275.937C66.8677 276.115 66.8776 276.314 66.8975 276.532C66.9173 276.751 66.967 276.949 67.0464 277.128C67.1258 277.307 67.245 277.456 67.4038 277.575C67.5627 277.694 67.791 277.753 68.0889 277.753C68.4463 277.753 68.7739 277.624 69.0718 277.366C69.3895 277.088 69.6675 276.81 69.9058 276.532L70.6504 277.158C70.3525 277.575 69.9951 278.031 69.5781 278.528C69.1611 279.024 68.6548 279.491 68.0591 279.928C67.4634 280.365 66.7684 280.732 65.9741 281.03C65.1799 281.328 64.2764 281.477 63.2637 281.477C62.0127 281.477 60.9007 281.109 59.9277 280.375C58.9548 279.62 58.3193 278.468 58.0215 276.919C57.3861 277.773 56.7209 278.488 56.0259 279.064C55.3507 279.64 54.6558 280.106 53.9409 280.464C53.2261 280.821 52.5013 281.079 51.7666 281.238C51.0518 281.397 50.327 281.477 49.5923 281.477C48.6392 281.477 47.7158 281.328 46.8223 281.03C45.9287 280.732 45.1245 280.265 44.4097 279.63C43.7147 278.975 43.1488 278.131 42.7119 277.098C42.2949 276.066 42.0864 274.805 42.0864 273.315C42.0864 271.508 42.4438 270.029 43.1587 268.877C43.8735 267.726 44.8068 266.763 45.9585 265.988C47.13 265.194 48.4505 264.519 49.9199 263.963C51.4092 263.407 52.9282 262.821 54.4771 262.206C55.6287 261.749 56.4627 261.074 56.979 260.18C57.5151 259.267 57.7832 258.333 57.7832 257.38C57.7832 255.911 57.3464 254.739 56.4727 253.866C55.6188 252.972 54.4473 252.525 52.958 252.525ZM83.875 278.379C83.875 278.637 83.8254 278.945 83.7261 279.302C83.6466 279.66 83.4382 279.997 83.1006 280.315C82.7829 280.633 82.3063 280.901 81.6709 281.119C81.0553 281.357 80.2214 281.477 79.1689 281.477C78.1165 281.477 77.2925 281.347 76.6968 281.089C76.1011 280.851 75.6543 280.563 75.3564 280.226C75.0785 279.888 74.8997 279.541 74.8203 279.183C74.7607 278.826 74.731 278.538 74.731 278.319V239.896C74.731 239.321 74.592 238.824 74.314 238.407C74.0558 237.97 73.609 237.752 72.9736 237.752C72.6361 237.752 72.3382 237.812 72.0801 237.931C71.8418 238.03 71.5837 238.189 71.3057 238.407L70.71 237.692C71.1667 237.315 71.673 236.948 72.229 236.59C72.785 236.213 73.3906 235.885 74.0459 235.607C74.721 235.329 75.4359 235.101 76.1904 234.922C76.945 234.744 77.7393 234.654 78.5732 234.654C79.8639 234.654 80.8667 234.833 81.5815 235.19C82.2964 235.528 82.8226 235.955 83.1602 236.471C83.4977 236.968 83.6963 237.504 83.7559 238.08C83.8353 238.636 83.875 239.132 83.875 239.569V278.379ZM126.527 275.698C126.527 276.155 126.567 276.592 126.646 277.009C126.746 277.406 126.924 277.753 127.183 278.051C127.461 278.349 127.828 278.587 128.285 278.766C128.761 278.945 129.377 279.034 130.131 279.034C131.223 279.034 132.226 278.726 133.14 278.111C134.053 277.475 134.837 276.671 135.493 275.698C136.148 274.705 136.654 273.603 137.012 272.392C137.369 271.161 137.548 269.94 137.548 268.729C137.548 266.922 137.3 265.333 136.803 263.963C136.327 262.573 135.652 261.401 134.778 260.448C133.904 259.495 132.872 258.76 131.68 258.244C130.489 257.708 129.198 257.4 127.808 257.321L128.404 255.802C129.278 255.841 130.111 255.722 130.906 255.444C131.7 255.166 132.395 254.68 132.991 253.985C133.606 253.29 134.093 252.357 134.45 251.185C134.808 249.994 134.986 248.504 134.986 246.717C134.986 245.506 134.837 244.414 134.54 243.441C134.242 242.468 133.845 241.654 133.348 240.999C132.872 240.323 132.306 239.807 131.65 239.45C131.015 239.092 130.36 238.914 129.685 238.914C129.268 238.914 128.861 238.963 128.463 239.062C128.086 239.162 127.749 239.331 127.451 239.569C127.173 239.807 126.944 240.125 126.766 240.522C126.607 240.899 126.527 241.376 126.527 241.952V275.698ZM127.123 236.471C132.882 236.471 137.111 237.375 139.812 239.182C142.532 240.969 143.892 243.58 143.892 247.015C143.892 247.869 143.793 248.653 143.594 249.368C143.416 250.083 143.177 250.738 142.879 251.334C142.582 251.91 142.244 252.426 141.867 252.883C141.489 253.34 141.102 253.737 140.705 254.074C139.772 254.888 138.719 255.524 137.548 255.98V256.427C139.395 256.646 141.053 257.202 142.522 258.095C143.138 258.472 143.743 258.949 144.339 259.525C144.935 260.081 145.461 260.766 145.917 261.58C146.394 262.374 146.771 263.308 147.049 264.38C147.347 265.432 147.496 266.644 147.496 268.014C147.496 270.099 147.119 271.975 146.364 273.643C145.61 275.311 144.488 276.731 142.999 277.902C141.509 279.054 139.653 279.938 137.429 280.553C135.205 281.169 132.623 281.477 129.685 281.477C126.964 281.477 124.75 281.308 123.042 280.97C121.335 280.633 120.004 280.146 119.051 279.511C118.098 278.855 117.443 278.071 117.085 277.158C116.748 276.244 116.579 275.212 116.579 274.06V241.475C116.579 240.383 115.825 239.837 114.315 239.837C113.223 239.837 112.111 240.006 110.979 240.343C109.868 240.661 108.855 241.108 107.941 241.684C107.048 242.24 106.313 242.915 105.737 243.709C105.161 244.483 104.874 245.327 104.874 246.241C104.874 246.876 104.953 247.382 105.112 247.76C105.291 248.137 105.489 248.425 105.708 248.624C105.926 248.802 106.144 248.921 106.363 248.981C106.601 249.021 106.77 249.041 106.869 249.041C107.366 249.041 107.773 248.961 108.09 248.802C108.408 248.624 108.696 248.445 108.954 248.266C109.212 248.068 109.451 247.889 109.669 247.73C109.907 247.551 110.175 247.462 110.473 247.462C110.711 247.462 110.96 247.521 111.218 247.641C111.496 247.74 111.744 247.909 111.962 248.147C112.201 248.385 112.399 248.703 112.558 249.1C112.717 249.477 112.796 249.944 112.796 250.5C112.796 251.294 112.638 251.979 112.32 252.555C112.022 253.131 111.625 253.618 111.128 254.015C110.652 254.392 110.096 254.68 109.46 254.878C108.845 255.057 108.229 255.146 107.614 255.146C106.661 255.146 105.797 254.988 105.022 254.67C104.268 254.332 103.623 253.876 103.086 253.3C102.55 252.724 102.143 252.049 101.865 251.274C101.587 250.5 101.448 249.676 101.448 248.802C101.448 247.154 101.756 245.705 102.372 244.454C102.987 243.183 103.851 242.091 104.963 241.177C106.095 240.264 107.445 239.509 109.014 238.914C110.582 238.298 112.32 237.812 114.226 237.454C116.132 237.097 118.168 236.848 120.332 236.709C122.516 236.551 124.78 236.471 127.123 236.471ZM166.469 265.571C166.469 265.075 166.31 264.698 165.993 264.439C165.675 264.181 165.268 264.052 164.771 264.052C164.076 264.052 163.411 264.211 162.776 264.529C162.16 264.847 161.614 265.313 161.138 265.929C160.661 266.544 160.284 267.309 160.006 268.222C159.728 269.116 159.589 270.158 159.589 271.35C159.589 272.501 159.668 273.454 159.827 274.209C160.006 274.964 160.234 275.569 160.512 276.026C160.81 276.463 161.148 276.771 161.525 276.949C161.902 277.128 162.299 277.217 162.716 277.217C163.233 277.217 163.719 277.088 164.176 276.83C164.632 276.552 165.03 276.205 165.367 275.788C165.705 275.371 165.973 274.904 166.171 274.388C166.37 273.871 166.469 273.355 166.469 272.839V265.571ZM161.733 252.525C161.058 252.525 160.433 252.605 159.857 252.764C159.281 252.923 158.785 253.121 158.368 253.359C157.951 253.598 157.623 253.866 157.385 254.164C157.146 254.442 157.027 254.71 157.027 254.968C157.027 255.266 157.176 255.484 157.474 255.623C157.792 255.742 158.139 255.891 158.517 256.07C158.894 256.229 159.231 256.467 159.529 256.785C159.847 257.083 160.006 257.549 160.006 258.185C160.006 258.602 159.917 258.989 159.738 259.346C159.579 259.684 159.351 259.992 159.053 260.27C158.775 260.528 158.437 260.736 158.04 260.895C157.663 261.034 157.266 261.104 156.849 261.104C155.737 261.104 154.833 260.726 154.138 259.972C153.463 259.217 153.125 258.214 153.125 256.963C153.125 255.752 153.443 254.72 154.079 253.866C154.714 252.992 155.538 252.277 156.551 251.721C157.583 251.165 158.745 250.758 160.036 250.5C161.326 250.222 162.617 250.083 163.908 250.083C165.457 250.083 166.936 250.252 168.346 250.589C169.756 250.927 170.997 251.463 172.069 252.198C173.161 252.932 174.025 253.866 174.66 254.998C175.315 256.129 175.643 257.5 175.643 259.108V275.937C175.643 276.115 175.653 276.314 175.673 276.532C175.693 276.751 175.742 276.949 175.822 277.128C175.901 277.307 176.02 277.456 176.179 277.575C176.338 277.694 176.566 277.753 176.864 277.753C177.222 277.753 177.549 277.624 177.847 277.366C178.165 277.088 178.443 276.81 178.681 276.532L179.426 277.158C179.128 277.575 178.771 278.031 178.354 278.528C177.937 279.024 177.43 279.491 176.834 279.928C176.239 280.365 175.544 280.732 174.75 281.03C173.955 281.328 173.052 281.477 172.039 281.477C170.788 281.477 169.676 281.109 168.703 280.375C167.73 279.62 167.095 278.468 166.797 276.919C166.161 277.773 165.496 278.488 164.801 279.064C164.126 279.64 163.431 280.106 162.716 280.464C162.001 280.821 161.277 281.079 160.542 281.238C159.827 281.397 159.102 281.477 158.368 281.477C157.415 281.477 156.491 281.328 155.598 281.03C154.704 280.732 153.9 280.265 153.185 279.63C152.49 278.975 151.924 278.131 151.487 277.098C151.07 276.066 150.862 274.805 150.862 273.315C150.862 271.508 151.219 270.029 151.934 268.877C152.649 267.726 153.582 266.763 154.734 265.988C155.905 265.194 157.226 264.519 158.695 263.963C160.185 263.407 161.704 262.821 163.252 262.206C164.404 261.749 165.238 261.074 165.754 260.18C166.291 259.267 166.559 258.333 166.559 257.38C166.559 255.911 166.122 254.739 165.248 253.866C164.394 252.972 163.223 252.525 161.733 252.525ZM192.65 255.742C193.385 254.69 194.219 253.747 195.152 252.913C195.53 252.555 195.947 252.208 196.403 251.87C196.88 251.533 197.376 251.235 197.893 250.977C198.429 250.699 198.985 250.48 199.561 250.321C200.156 250.162 200.762 250.083 201.377 250.083C202.708 250.083 203.899 250.341 204.952 250.857C206.004 251.374 206.888 252.237 207.603 253.449C208.317 254.66 208.863 256.268 209.241 258.274C209.618 260.26 209.807 262.732 209.807 265.69C209.807 268.57 209.549 271.072 209.032 273.196C208.516 275.321 207.841 277.128 207.007 278.617C206.173 280.106 205.23 281.318 204.177 282.251C203.125 283.204 202.062 283.949 200.99 284.485C199.918 285.021 198.885 285.388 197.893 285.587C196.9 285.805 196.046 285.924 195.331 285.944L195.033 284.723C195.927 284.505 196.721 284.098 197.416 283.502C198.111 282.906 198.697 281.933 199.173 280.583C199.65 279.213 200.007 277.376 200.246 275.073C200.504 272.769 200.633 269.801 200.633 266.167C200.633 263.665 200.514 261.669 200.275 260.18C200.057 258.671 199.759 257.529 199.382 256.755C199.024 255.961 198.607 255.444 198.131 255.206C197.674 254.948 197.208 254.819 196.731 254.819C196.155 254.819 195.649 254.978 195.212 255.295C194.775 255.593 194.388 255.941 194.05 256.338C193.733 256.735 193.455 257.132 193.216 257.529C192.998 257.926 192.809 258.224 192.65 258.423V278.319C192.65 278.577 192.611 278.895 192.531 279.272C192.452 279.63 192.253 279.977 191.936 280.315C191.638 280.633 191.181 280.901 190.565 281.119C189.97 281.357 189.146 281.477 188.093 281.477C187.041 281.477 186.207 281.347 185.591 281.089C184.976 280.851 184.509 280.563 184.191 280.226C183.894 279.888 183.705 279.541 183.625 279.183C183.546 278.826 183.506 278.538 183.506 278.319V239.896C183.506 239.321 183.367 238.824 183.089 238.407C182.831 237.97 182.384 237.752 181.749 237.752C181.411 237.752 181.114 237.812 180.855 237.931C180.617 238.03 180.359 238.189 180.081 238.407L179.485 237.692C179.942 237.315 180.448 236.948 181.004 236.59C181.56 236.213 182.166 235.885 182.821 235.607C183.496 235.329 184.211 235.101 184.966 234.922C185.72 234.744 186.515 234.654 187.349 234.654C188.639 234.654 189.642 234.833 190.357 235.19C191.072 235.528 191.598 235.955 191.936 236.471C192.273 236.968 192.472 237.504 192.531 238.08C192.611 238.636 192.65 239.132 192.65 239.569V255.742ZM229.375 265.571C229.375 265.075 229.217 264.698 228.899 264.439C228.581 264.181 228.174 264.052 227.678 264.052C226.983 264.052 226.318 264.211 225.682 264.529C225.067 264.847 224.521 265.313 224.044 265.929C223.567 266.544 223.19 267.309 222.912 268.222C222.634 269.116 222.495 270.158 222.495 271.35C222.495 272.501 222.575 273.454 222.733 274.209C222.912 274.964 223.14 275.569 223.418 276.026C223.716 276.463 224.054 276.771 224.431 276.949C224.808 277.128 225.206 277.217 225.623 277.217C226.139 277.217 226.625 277.088 227.082 276.83C227.539 276.552 227.936 276.205 228.273 275.788C228.611 275.371 228.879 274.904 229.078 274.388C229.276 273.871 229.375 273.355 229.375 272.839V265.571ZM224.64 252.525C223.965 252.525 223.339 252.605 222.763 252.764C222.187 252.923 221.691 253.121 221.274 253.359C220.857 253.598 220.529 253.866 220.291 254.164C220.053 254.442 219.934 254.71 219.934 254.968C219.934 255.266 220.083 255.484 220.38 255.623C220.698 255.742 221.046 255.891 221.423 256.07C221.8 256.229 222.138 256.467 222.436 256.785C222.753 257.083 222.912 257.549 222.912 258.185C222.912 258.602 222.823 258.989 222.644 259.346C222.485 259.684 222.257 259.992 221.959 260.27C221.681 260.528 221.343 260.736 220.946 260.895C220.569 261.034 220.172 261.104 219.755 261.104C218.643 261.104 217.739 260.726 217.044 259.972C216.369 259.217 216.032 258.214 216.032 256.963C216.032 255.752 216.349 254.72 216.985 253.866C217.62 252.992 218.444 252.277 219.457 251.721C220.49 251.165 221.651 250.758 222.942 250.5C224.233 250.222 225.523 250.083 226.814 250.083C228.363 250.083 229.842 250.252 231.252 250.589C232.662 250.927 233.903 251.463 234.975 252.198C236.067 252.932 236.931 253.866 237.566 254.998C238.222 256.129 238.549 257.5 238.549 259.108V275.937C238.549 276.115 238.559 276.314 238.579 276.532C238.599 276.751 238.649 276.949 238.728 277.128C238.807 277.307 238.927 277.456 239.085 277.575C239.244 277.694 239.473 277.753 239.771 277.753C240.128 277.753 240.456 277.624 240.753 277.366C241.071 277.088 241.349 276.81 241.587 276.532L242.332 277.158C242.034 277.575 241.677 278.031 241.26 278.528C240.843 279.024 240.336 279.491 239.741 279.928C239.145 280.365 238.45 280.732 237.656 281.03C236.861 281.328 235.958 281.477 234.945 281.477C233.694 281.477 232.582 281.109 231.609 280.375C230.636 279.62 230.001 278.468 229.703 276.919C229.068 277.773 228.403 278.488 227.708 279.064C227.032 279.64 226.337 280.106 225.623 280.464C224.908 280.821 224.183 281.079 223.448 281.238C222.733 281.397 222.009 281.477 221.274 281.477C220.321 281.477 219.397 281.328 218.504 281.03C217.61 280.732 216.806 280.265 216.091 279.63C215.396 278.975 214.83 278.131 214.394 277.098C213.977 276.066 213.768 274.805 213.768 273.315C213.768 271.508 214.125 270.029 214.84 268.877C215.555 267.726 216.488 266.763 217.64 265.988C218.812 265.194 220.132 264.519 221.602 263.963C223.091 263.407 224.61 262.821 226.159 262.206C227.31 261.749 228.144 261.074 228.661 260.18C229.197 259.267 229.465 258.333 229.465 257.38C229.465 255.911 229.028 254.739 228.154 253.866C227.3 252.972 226.129 252.525 224.64 252.525ZM262.884 264.827C262.884 264.608 262.884 264.171 262.884 263.516C262.884 262.841 262.864 262.076 262.824 261.223C262.785 260.349 262.715 259.426 262.616 258.453C262.516 257.48 262.358 256.576 262.139 255.742C261.663 255.127 261.126 254.581 260.531 254.104C259.955 253.608 259.21 253.359 258.297 253.359C256.748 253.359 255.606 254.372 254.872 256.397C254.157 258.423 253.799 261.56 253.799 265.81C253.799 267.676 253.879 269.384 254.038 270.933C254.216 272.481 254.474 273.812 254.812 274.924C255.169 276.036 255.616 276.9 256.152 277.515C256.708 278.131 257.364 278.438 258.118 278.438C261.295 278.438 262.884 273.901 262.884 264.827ZM262.526 251.721C262.149 249.736 261.623 247.889 260.948 246.181C260.273 244.454 259.458 242.964 258.505 241.713C257.572 240.462 256.5 239.479 255.289 238.765C254.097 238.05 252.806 237.692 251.417 237.692C250.622 237.692 249.897 237.792 249.242 237.99C248.607 238.189 248.051 238.427 247.574 238.705C247.098 238.963 246.701 239.221 246.383 239.479C246.085 239.718 245.867 239.896 245.728 240.016L244.953 238.973C245.43 238.358 246.006 237.782 246.681 237.246C247.376 236.709 248.13 236.253 248.944 235.875C249.758 235.498 250.612 235.2 251.506 234.982C252.419 234.764 253.323 234.654 254.216 234.654C257.155 234.654 259.736 235.3 261.96 236.59C264.184 237.861 266.041 239.668 267.53 242.011C269.02 244.354 270.141 247.184 270.896 250.5C271.651 253.816 272.028 257.5 272.028 261.55C272.028 264.827 271.69 267.706 271.015 270.188C270.36 272.67 269.417 274.755 268.186 276.443C266.954 278.111 265.455 279.372 263.688 280.226C261.941 281.06 259.965 281.477 257.761 281.477C256.232 281.477 254.673 281.208 253.084 280.672C251.516 280.116 250.086 279.223 248.795 277.992C247.525 276.761 246.482 275.152 245.668 273.167C244.854 271.161 244.447 268.709 244.447 265.81C244.447 263.308 244.794 261.084 245.489 259.138C246.204 257.192 247.157 255.554 248.349 254.223C249.54 252.873 250.92 251.85 252.489 251.155C254.057 250.44 255.715 250.083 257.463 250.083C258.138 250.083 258.744 250.143 259.28 250.262C259.816 250.361 260.283 250.49 260.68 250.649C261.077 250.808 261.424 250.986 261.722 251.185C262.02 251.364 262.288 251.542 262.526 251.721ZM303.779 275.817C303.779 275.996 303.789 276.195 303.809 276.413C303.828 276.612 303.878 276.81 303.958 277.009C304.037 277.188 304.156 277.336 304.315 277.456C304.474 277.575 304.702 277.634 305 277.634C305.377 277.634 305.715 277.505 306.013 277.247C306.311 276.969 306.589 276.691 306.847 276.413L307.562 277.039C307.264 277.456 306.886 277.922 306.43 278.438C305.993 278.935 305.457 279.411 304.821 279.868C304.186 280.325 303.461 280.702 302.647 281C301.833 281.318 300.91 281.477 299.877 281.477C299.003 281.477 298.239 281.357 297.583 281.119C296.948 280.901 296.402 280.603 295.945 280.226C295.508 279.828 295.181 279.372 294.962 278.855C294.744 278.319 294.635 277.753 294.635 277.158V275.817C293.642 276.89 292.599 277.833 291.507 278.647C291.031 279.004 290.524 279.352 289.988 279.689C289.452 280.027 288.896 280.335 288.32 280.613C287.744 280.871 287.149 281.079 286.533 281.238C285.918 281.397 285.302 281.477 284.687 281.477C283.495 281.477 282.472 281.268 281.619 280.851C280.785 280.414 280.11 279.848 279.593 279.153C279.077 278.458 278.7 277.674 278.461 276.8C278.223 275.927 278.104 275.053 278.104 274.179V255.742C278.104 255.563 278.094 255.375 278.074 255.176C278.054 254.958 278.005 254.759 277.925 254.581C277.846 254.382 277.727 254.223 277.568 254.104C277.409 253.985 277.181 253.925 276.883 253.925C276.525 253.925 276.188 254.064 275.87 254.342C275.572 254.6 275.304 254.868 275.066 255.146L274.321 254.521C274.619 254.104 274.986 253.647 275.423 253.151C275.88 252.635 276.426 252.148 277.062 251.691C277.697 251.235 278.422 250.857 279.236 250.56C280.07 250.242 280.993 250.083 282.006 250.083C282.88 250.083 283.644 250.202 284.299 250.44C284.955 250.659 285.501 250.967 285.938 251.364C286.374 251.741 286.702 252.198 286.92 252.734C287.139 253.25 287.248 253.806 287.248 254.402V274.298C287.248 274.576 287.288 274.864 287.367 275.162C287.466 275.44 287.596 275.698 287.754 275.937C287.933 276.175 288.152 276.373 288.41 276.532C288.668 276.671 288.976 276.741 289.333 276.741C289.909 276.741 290.485 276.592 291.061 276.294C291.636 275.996 292.163 275.649 292.639 275.251C293.116 274.834 293.523 274.427 293.86 274.03C294.218 273.633 294.476 273.335 294.635 273.137V255.742C294.635 255.563 294.625 255.375 294.605 255.176C294.585 254.958 294.535 254.759 294.456 254.581C294.377 254.382 294.257 254.223 294.099 254.104C293.94 253.985 293.711 253.925 293.414 253.925C293.056 253.925 292.719 254.064 292.401 254.342C292.103 254.6 291.835 254.868 291.597 255.146L290.852 254.521C291.15 254.104 291.517 253.647 291.954 253.151C292.411 252.635 292.957 252.148 293.592 251.691C294.228 251.235 294.952 250.857 295.767 250.56C296.601 250.242 297.524 250.083 298.537 250.083C299.41 250.083 300.175 250.202 300.83 250.44C301.485 250.659 302.031 250.967 302.468 251.364C302.905 251.741 303.233 252.198 303.451 252.734C303.67 253.25 303.779 253.806 303.779 254.402V275.817ZM321.144 256.368C321.898 255.216 322.702 254.174 323.556 253.24C323.914 252.843 324.301 252.456 324.718 252.079C325.135 251.701 325.562 251.364 325.999 251.066C326.455 250.768 326.922 250.53 327.398 250.351C327.875 250.172 328.352 250.083 328.828 250.083C329.841 250.083 330.635 250.391 331.211 251.006C331.787 251.602 332.075 252.446 332.075 253.538C332.075 254.213 332.015 254.868 331.896 255.504C331.797 256.119 331.588 256.874 331.271 257.768H330.437C330.317 257.152 330.039 256.646 329.603 256.249C329.166 255.832 328.53 255.623 327.696 255.623C327.081 255.623 326.475 255.742 325.879 255.98C325.284 256.199 324.698 256.477 324.122 256.814C323.566 257.152 323.03 257.519 322.514 257.917C322.017 258.314 321.561 258.691 321.144 259.048V278.379C321.144 278.637 321.104 278.945 321.024 279.302C320.945 279.66 320.746 279.997 320.429 280.315C320.131 280.633 319.674 280.901 319.059 281.119C318.463 281.357 317.639 281.477 316.586 281.477C315.534 281.477 314.7 281.347 314.084 281.089C313.489 280.851 313.032 280.563 312.714 280.226C312.397 279.888 312.198 279.541 312.119 279.183C312.039 278.826 312 278.538 312 278.319V255.325C312 254.749 311.861 254.253 311.583 253.836C311.324 253.399 310.878 253.181 310.242 253.181C309.905 253.181 309.617 253.24 309.378 253.359C309.14 253.479 308.882 253.647 308.604 253.866L307.979 253.121C308.435 252.744 308.942 252.376 309.498 252.019C310.073 251.642 310.689 251.314 311.344 251.036C312 250.758 312.704 250.53 313.459 250.351C314.214 250.172 315.008 250.083 315.842 250.083C316.696 250.083 317.42 250.202 318.016 250.44C318.632 250.659 319.128 250.957 319.505 251.334C319.903 251.691 320.21 252.098 320.429 252.555C320.647 253.012 320.806 253.479 320.905 253.955C321.024 254.412 321.094 254.859 321.114 255.295C321.134 255.712 321.144 256.07 321.144 256.368Z" fill="white"/>
<path d="M15.048 324.416C15.048 325.44 14.8 326.312 14.304 327.032C13.808 327.736 13.096 328.28 12.168 328.664C11.256 329.048 10.176 329.24 8.928 329.24C8.288 329.24 7.672 329.208 7.08 329.144C6.504 329.08 5.976 328.992 5.496 328.88C5.016 328.752 4.592 328.6 4.224 328.424V326.36C4.8 326.616 5.512 326.848 6.36 327.056C7.224 327.264 8.112 327.368 9.024 327.368C9.872 327.368 10.584 327.256 11.16 327.032C11.736 326.808 12.168 326.488 12.456 326.072C12.744 325.656 12.888 325.168 12.888 324.608C12.888 324.048 12.768 323.576 12.528 323.192C12.288 322.808 11.872 322.456 11.28 322.136C10.704 321.8 9.896 321.448 8.856 321.08C8.12 320.808 7.472 320.52 6.912 320.216C6.368 319.896 5.912 319.536 5.544 319.136C5.176 318.736 4.896 318.28 4.704 317.768C4.528 317.256 4.44 316.664 4.44 315.992C4.44 315.08 4.672 314.304 5.136 313.664C5.6 313.008 6.24 312.504 7.056 312.152C7.888 311.8 8.84 311.624 9.912 311.624C10.856 311.624 11.72 311.712 12.504 311.888C13.288 312.064 14 312.296 14.64 312.584L13.968 314.432C13.376 314.176 12.728 313.96 12.024 313.784C11.336 313.608 10.616 313.52 9.864 313.52C9.144 313.52 8.544 313.624 8.064 313.832C7.584 314.04 7.224 314.336 6.984 314.72C6.744 315.088 6.624 315.52 6.624 316.016C6.624 316.592 6.744 317.072 6.984 317.456C7.224 317.84 7.616 318.184 8.16 318.488C8.704 318.792 9.44 319.12 10.368 319.472C11.376 319.84 12.224 320.24 12.912 320.672C13.616 321.088 14.144 321.592 14.496 322.184C14.864 322.776 15.048 323.52 15.048 324.416ZM37.2919 320.408C37.2919 321.736 37.1239 322.944 36.7879 324.032C36.4519 325.104 35.9479 326.032 35.2759 326.816C34.6199 327.6 33.7959 328.2 32.8039 328.616C31.8279 329.032 30.6919 329.24 29.3959 329.24C28.0519 329.24 26.8839 329.032 25.8919 328.616C24.8999 328.184 24.0759 327.584 23.4199 326.816C22.7639 326.032 22.2759 325.096 21.9559 324.008C21.6359 322.92 21.4759 321.712 21.4759 320.384C21.4759 318.624 21.7639 317.088 22.3399 315.776C22.9159 314.464 23.7879 313.44 24.9559 312.704C26.1399 311.968 27.6279 311.6 29.4199 311.6C31.1319 311.6 32.5719 311.968 33.7399 312.704C34.9079 313.424 35.7879 314.448 36.3799 315.776C36.9879 317.088 37.2919 318.632 37.2919 320.408ZM23.7559 320.408C23.7559 321.848 23.9559 323.088 24.3559 324.128C24.7559 325.168 25.3719 325.968 26.2039 326.528C27.0519 327.088 28.1159 327.368 29.3959 327.368C30.6919 327.368 31.7479 327.088 32.5639 326.528C33.3959 325.968 34.0119 325.168 34.4119 324.128C34.8119 323.088 35.0119 321.848 35.0119 320.408C35.0119 318.248 34.5639 316.56 33.6679 315.344C32.7719 314.112 31.3559 313.496 29.4199 313.496C28.1239 313.496 27.0519 313.776 26.2039 314.336C25.3719 314.88 24.7559 315.672 24.3559 316.712C23.9559 317.736 23.7559 318.968 23.7559 320.408ZM47.0899 329H44.9299V311.864H54.5059V313.76H47.0899V319.832H54.0499V321.728H47.0899V329ZM66.6392 329H64.4792V313.76H59.1272V311.864H71.9672V313.76H66.6392V329ZM98.0711 311.864L93.5111 329H91.3271L87.9911 317.768C87.8951 317.432 87.7991 317.088 87.7031 316.736C87.6071 316.384 87.5191 316.048 87.4391 315.728C87.3591 315.408 87.2871 315.136 87.2231 314.912C87.1751 314.672 87.1431 314.496 87.1271 314.384C87.1111 314.496 87.0791 314.672 87.0311 314.912C86.9991 315.136 86.9431 315.408 86.8631 315.728C86.7831 316.048 86.6951 316.392 86.5991 316.76C86.5191 317.112 86.4231 317.472 86.3111 317.84L83.0711 329H80.8871L76.3511 311.864H78.6071L81.2711 322.328C81.3671 322.696 81.4551 323.064 81.5351 323.432C81.6151 323.784 81.6871 324.136 81.7511 324.488C81.8311 324.824 81.8951 325.152 81.9431 325.472C81.9911 325.792 82.0391 326.104 82.0871 326.408C82.1351 326.088 82.1831 325.76 82.2311 325.424C82.2951 325.088 82.3671 324.744 82.4471 324.392C82.5271 324.024 82.6151 323.656 82.7111 323.288C82.8071 322.92 82.9031 322.56 82.9991 322.208L86.0231 311.864H88.2551L91.3991 322.28C91.5111 322.648 91.6151 323.024 91.7111 323.408C91.8071 323.776 91.8951 324.136 91.9751 324.488C92.0551 324.84 92.1191 325.184 92.1671 325.52C92.2311 325.84 92.2871 326.136 92.3351 326.408C92.3831 326.008 92.4471 325.592 92.5271 325.16C92.6071 324.712 92.7031 324.248 92.8151 323.768C92.9271 323.288 93.0471 322.8 93.1751 322.304L95.8151 311.864H98.0711ZM114.335 329L112.271 323.696H105.479L103.439 329H101.255L107.951 311.792H109.895L116.567 329H114.335ZM109.703 316.592C109.655 316.464 109.575 316.232 109.463 315.896C109.351 315.56 109.239 315.216 109.127 314.864C109.031 314.496 108.951 314.216 108.887 314.024C108.807 314.344 108.719 314.672 108.623 315.008C108.543 315.328 108.455 315.624 108.359 315.896C108.279 316.168 108.207 316.4 108.143 316.592L106.199 321.776H111.623L109.703 316.592ZM127.479 311.864C128.903 311.864 130.071 312.048 130.983 312.416C131.911 312.768 132.599 313.304 133.047 314.024C133.495 314.744 133.719 315.648 133.719 316.736C133.719 317.648 133.551 318.408 133.215 319.016C132.879 319.624 132.447 320.112 131.919 320.48C131.407 320.832 130.863 321.112 130.287 321.32L134.991 329H132.471L128.319 321.92H124.911V329H122.751V311.864H127.479ZM127.359 313.736H124.911V320.096H127.479C128.407 320.096 129.167 319.976 129.759 319.736C130.351 319.48 130.783 319.112 131.055 318.632C131.343 318.152 131.487 317.552 131.487 316.832C131.487 316.08 131.335 315.48 131.031 315.032C130.743 314.584 130.295 314.256 129.687 314.048C129.079 313.84 128.303 313.736 127.359 313.736ZM151.097 329H141.521V311.864H151.097V313.76H143.681V319.112H150.665V320.984H143.681V327.104H151.097V329ZM182.499 320.264C182.499 322.184 182.139 323.792 181.419 325.088C180.715 326.384 179.699 327.36 178.371 328.016C177.043 328.672 175.435 329 173.547 329H168.771V311.864H174.051C175.779 311.864 177.275 312.184 178.539 312.824C179.803 313.464 180.779 314.408 181.467 315.656C182.155 316.888 182.499 318.424 182.499 320.264ZM180.219 320.336C180.219 318.816 179.963 317.568 179.451 316.592C178.955 315.616 178.219 314.896 177.243 314.432C176.283 313.952 175.115 313.712 173.739 313.712H170.931V327.152H173.259C175.579 327.152 177.315 326.584 178.467 325.448C179.635 324.296 180.219 322.592 180.219 320.336ZM199.718 329H190.142V311.864H199.718V313.76H192.302V319.112H199.286V320.984H192.302V327.104H199.718V329ZM219.39 311.864L213.27 329H211.11L204.99 311.864H207.246L211.11 322.856C211.286 323.32 211.438 323.768 211.566 324.2C211.694 324.632 211.806 325.048 211.902 325.448C212.014 325.832 212.11 326.216 212.19 326.6C212.27 326.216 212.358 325.824 212.454 325.424C212.566 325.024 212.686 324.608 212.814 324.176C212.958 323.744 213.11 323.288 213.27 322.808L217.11 311.864H219.39ZM235.125 329H225.549V311.864H235.125V313.76H227.709V319.112H234.693V320.984H227.709V327.104H235.125V329ZM242.725 329V311.864H244.885V327.08H252.373V329H242.725ZM273.634 320.408C273.634 321.736 273.466 322.944 273.13 324.032C272.794 325.104 272.29 326.032 271.618 326.816C270.962 327.6 270.138 328.2 269.146 328.616C268.17 329.032 267.034 329.24 265.738 329.24C264.394 329.24 263.226 329.032 262.234 328.616C261.242 328.184 260.418 327.584 259.762 326.816C259.106 326.032 258.618 325.096 258.298 324.008C257.978 322.92 257.818 321.712 257.818 320.384C257.818 318.624 258.106 317.088 258.682 315.776C259.258 314.464 260.13 313.44 261.298 312.704C262.482 311.968 263.97 311.6 265.762 311.6C267.474 311.6 268.914 311.968 270.082 312.704C271.25 313.424 272.13 314.448 272.722 315.776C273.33 317.088 273.634 318.632 273.634 320.408ZM260.098 320.408C260.098 321.848 260.298 323.088 260.698 324.128C261.098 325.168 261.714 325.968 262.546 326.528C263.394 327.088 264.458 327.368 265.738 327.368C267.034 327.368 268.09 327.088 268.906 326.528C269.738 325.968 270.354 325.168 270.754 324.128C271.154 323.088 271.354 321.848 271.354 320.408C271.354 318.248 270.906 316.56 270.01 315.344C269.114 314.112 267.698 313.496 265.762 313.496C264.466 313.496 263.394 313.776 262.546 314.336C261.714 314.88 261.098 315.672 260.698 316.712C260.298 317.736 260.098 318.968 260.098 320.408ZM285.808 311.864C288.048 311.864 289.68 312.304 290.704 313.184C291.728 314.064 292.24 315.304 292.24 316.904C292.24 317.608 292.12 318.288 291.88 318.944C291.656 319.584 291.28 320.16 290.752 320.672C290.224 321.184 289.52 321.592 288.64 321.896C287.76 322.184 286.68 322.328 285.4 322.328H283.432V329H281.272V311.864H285.808ZM285.616 313.712H283.432V320.48H285.16C286.248 320.48 287.152 320.368 287.872 320.144C288.592 319.904 289.128 319.528 289.48 319.016C289.832 318.504 290.008 317.832 290.008 317C290.008 315.896 289.656 315.072 288.952 314.528C288.248 313.984 287.136 313.712 285.616 313.712ZM309.219 329H299.643V311.864H309.219V313.76H301.803V319.112H308.787V320.984H301.803V327.104H309.219V329ZM321.547 311.864C322.971 311.864 324.139 312.048 325.051 312.416C325.979 312.768 326.667 313.304 327.115 314.024C327.563 314.744 327.787 315.648 327.787 316.736C327.787 317.648 327.619 318.408 327.283 319.016C326.947 319.624 326.515 320.112 325.987 320.48C325.475 320.832 324.931 321.112 324.355 321.32L329.059 329H326.539L322.387 321.92H318.979V329H316.819V311.864H321.547ZM321.427 313.736H318.979V320.096H321.547C322.475 320.096 323.235 319.976 323.827 319.736C324.419 319.48 324.851 319.112 325.123 318.632C325.411 318.152 325.555 317.552 325.555 316.832C325.555 316.08 325.403 315.48 325.099 315.032C324.811 314.584 324.363 314.256 323.755 314.048C323.147 313.84 322.371 313.736 321.427 313.736Z" fill="white"/>
</svg>
